<?xml version="1.0" encoding="UTF-8" standalone="no"?>
<svg
   width="2806.3"
   height="1030.7524"
   viewBox="0 0 2806.3 1030.7524"
   version="1.1"
   id="svg19"
   sodipodi:docname="cslib-logo-lines-white.svg"
   inkscape:version="1.4.2 (ebf0e940d0, 2025-05-08)"
   inkscape:export-filename="cslib-logo-lines-white.png"
   inkscape:export-xdpi="96"
   inkscape:export-ydpi="96"
   xmlns:inkscape="http://www.inkscape.org/namespaces/inkscape"
   xmlns:sodipodi="http://sodipodi.sourceforge.net/DTD/sodipodi-0.dtd"
   xmlns="http://www.w3.org/2000/svg"
   xmlns:svg="http://www.w3.org/2000/svg">
  <defs
     id="defs19" />
  <sodipodi:namedview
     id="namedview19"
     pagecolor="#ffffff"
     bordercolor="#000000"
     borderopacity="0.25"
     inkscape:showpageshadow="2"
     inkscape:pageopacity="0.0"
     inkscape:pagecheckerboard="0"
     inkscape:deskcolor="#d1d1d1"
     inkscape:zoom="0.26204737"
     inkscape:cx="1364.2572"
     inkscape:cy="711.70339"
     inkscape:window-width="1920"
     inkscape:window-height="1140"
     inkscape:window-x="0"
     inkscape:window-y="0"
     inkscape:window-maximized="1"
     inkscape:current-layer="svg19" />
  <path
     d="m 683.797,443.27575 c 0.028,60.05 0.055,118.784 0.082,177.519 0.008,18.12 -8.038,24.891 -27.602,24.783 -74.031,-0.41 -148.063,-0.66 -222.095,-0.639 -21.06,0.006 -28.238,-5.793 -28.25,-25.282 -0.04,-70.13 -0.035,-140.261 0.005,-210.392 0.011,-18.959 5.649,-24.493 25.676,-24.526 75.55,-0.124 151.101,-0.14 226.651,-0.079 20.333,0.017 25.511,5.149 25.55,24.426 0.023,10.958 -0.01,21.917 -0.017,34.19 z"
     fill="#d35400"
     id="path1" />
  <path
     d="m 488.25,967.10975 c -0.9,-45.272 1.903,-40.276 41.094,-40.414 17.823,-0.063 35.646,0.1 53.468,-0.03 12.279,-0.09 18.45,5.891 18.582,16.834 0.286,23.65 0.197,47.31 -0.12,70.97005 -0.13,9.74 -5.768,15.9 -16.497,16.03 -26.728,0.32 -53.465,0.32 -80.195,0.09 -11.953,-0.11 -16.088,-7.4 -16.15,-17.49 -0.09,-14.89005 -0.124,-29.79005 -0.182,-45.99005 z"
     id="path2"
     style="fill:#ffffff;stroke:#ffffff" />
  <path
     d="m 488.682,45.868754 c 0.084,-11.3943 -0.225,-21.5011 0.367,-31.5615 0.543,-9.2170003 5.845,-14.32670033 16.356,-14.27410033 26.297,0.1315 52.597,0.1557 78.893,-0.0322999958 C 595.634,-0.08014633 600.917,5.6071537 601.059,15.313154 c 0.346,23.6806 0.25,47.3696 0.008,71.0526 -0.106,10.363 -5.811,16.517996 -17.345,16.622996 -25.821,0.235 -51.644,0.417 -77.464,0.305 -11.418,-0.049 -17.133,-6.080996 -17.275,-16.640996 -0.176,-13.158 -0.208,-26.317 -0.301,-40.784 z"
     id="path3"
     style="fill:#ffffff;stroke:#ffffff" />
  <path
     d="m 260.274,744.35975 c -15.951,0.005 -30.502,-0.206 -45.042,0.081 -11.448,0.226 -16.529,-5.403 -16.462,-15.257 0.165,-24.53 0.847,-49.055 1.181,-73.584 0.115,-8.47 4.458,-13.286 13.423,-13.799 27.642,-1.579 55.32,-1.444 82.969,-0.381 10.254,0.394 14.738,6.977 14.815,16.017 0.202,23.666 0.185,47.334 0.17,71.002 -0.007,10.656 -5.331,16.256 -17.272,15.957 -10.785,-0.27 -21.584,-0.045 -33.782,-0.036 z"
     id="path4"
     style="fill:#ffffff;stroke:#ffffff" />
  <path
     d="m 907.511,248.49675 c -0.007,-13.592 0.276,-25.879 -0.106,-38.148 -0.341,-10.933 5.278,-16.849 16.516,-17.025 26.752,-0.42 53.52,-0.517 80.269,-0.083 9.78,0.159 15.18,5.534 15.1,15.386 -0.2,24.557 -0.09,49.116 0.02,73.674 0.05,9.758 -4.82,14.616 -15.36,14.601 -26.757,-0.04 -53.519,-0.109 -80.278,0.063 -11.515,0.074 -16.005,-5.701 -16.096,-15.58 -0.098,-10.524 -0.049,-21.05 -0.065,-32.888 z"
     id="path5"
     style="fill:#ffffff;stroke:#ffffff" />
  <path
     d="m 111.769,716.71075 c 0.041,25.702 -1.565,27.189 -28.003,27.185 -21.1331,-0.004 -42.2676,0.124 -63.3989,-0.064 -16.36254,-0.145 -20.13293101,-3.632 -20.21660001,-18.463 -0.1285578,-22.809 0.261159,-45.625 -0.14463768,-68.429 -0.22202932,-12.477 5.85955769,-17.332 18.79693769,-17.158 24.8851,0.333 49.7808,0.285 74.668,0.038 13.2002,-0.131 18.6492,5.682 18.4422,17.719 -0.331,19.297 -0.124,38.601 -0.144,59.172 z"
     id="path6"
     style="fill:#ffffff;stroke:#ffffff" />
  <path
     d="m 182.266,269.31575 c -0.085,6.095 0.12,10.933 -0.32,15.719 -0.643,7.001 -4.629,11.612 -12.509,11.659 -28.591,0.168 -57.184,0.169 -85.7755,0.041 -8.5562,-0.038 -12.9445,-4.798 -12.9993,-12.511 -0.1835,-25.832 -0.1468,-51.665 -0.0762,-77.498 0.0242,-8.892 6.2781,-12.706 14.5681,-12.81 27.1719,-0.341 54.3579,-0.411 81.5259,0.051 10.49,0.178 15.856,5.897 15.676,16.273 -0.334,19.261 -0.091,38.53 -0.09,59.076 z"
     id="path7"
     style="fill:#ffffff;stroke:#ffffff" />
  <path
     d="m 308.922,964.55975 c -4.56,5.82 -10.188,5.98 -15.915,5.98 -25.338,0.01 -50.683,-0.26 -76.012,0.2 -12.649,0.22 -18.361,-5.4 -18.467,-16.45 -0.223,-23.23 -0.133,-46.46 -0.014,-69.687 0.058,-11.31 6.121,-16.594 18.496,-16.406 25.331,0.385 50.671,0.386 76.007,0.313 9.612,-0.028 17.945,2.722 17.959,12.496 0.04,27.511 2.729,55.093 -2.054,83.554 z"
     id="path8"
     style="fill:#ffffff;stroke:#ffffff" />
  <path
     d="m 1018.69,744.77475 c 0.17,24.376 0.35,47.582 0.22,70.787 -0.08,14.25 -4.11,18.03 -19.036,18.259 -25.297,0.386 -50.598,0.555 -75.897,0.893 -11.003,0.147 -16.529,-4.666 -16.506,-15.06 0.052,-24.519 0.09,-49.039 -0.031,-73.557 -0.044,-9.045 4.175,-14.093 14.107,-14.277 25.763,-0.477 51.527,-1.02 77.294,-1.264 9.659,-0.092 17.649,2.77 19.849,14.219 z"
     id="path9"
     style="fill:#ffffff;stroke:#ffffff" />
  <path
     d="m 555.934,753.83875 c -0.445,48.993 -0.914,96.673 -1.302,144.353 -0.056,6.815 0.478,13.546 -10.185,13.515 -10.451,-0.031 -10.567,-6.716 -10.577,-13.546 -0.105,-74.427 -0.175,-148.853 -0.258,-223.28 -0.008,-7.333 -0.047,-14.107 11.303,-14.155 11.733,-0.05 10.96,7.285 10.987,14.308 0.096,25.83 0.035,51.661 0.032,78.805 z"
     id="path10"
     style="fill:#ffffff;stroke:#ffffff" />
  <path
     d="m 533.683,219.55375 c 0.276,-30.63 -0.78,-59.958 1.445,-89.251 0.467,-6.146 0.851,-11.312 9.664,-11.349 8.871,-0.037 9.552,5.13 9.569,11.302 0.104,37.628 0.347,75.256 0.362,112.884 0.014,37.609 2.187,75.224 -0.237,112.828 -0.395,6.116 2.529,13.842 -9.06,14.087 -11.091,0.235 -11.726,-6.446 -11.727,-13.942 -0.007,-45.081 -0.011,-90.162 -0.016,-136.559 z"
     id="path11"
     style="fill:#ffffff;stroke:#ffffff" />
  <path
     d="m 861.847,318.28475 c -52.799,37.157 -104.796,73.743 -157.722,110.982 -7.922,-13.701 -3.394,-22.025 7.272,-29.449 41.415,-28.829 82.656,-57.876 123.936,-86.873 15.009,-10.543 29.929,-21.196 44.935,-31.743 2.89,-2.031 5.381,-5.143 10.645,-3.736 3.419,10.143 2.706,19.034 -8.149,25.85 -6.996,4.394 -13.43,9.571 -20.917,14.969 z"
     id="path12"
     style="fill:#ffffff;stroke:#ffffff" />
  <path
     d="m 221.456,289.91775 c 51.405,36.203 101.721,72.193 152.759,107.265 11.89,8.171 16.55,16.934 12.852,29.983 -4.523,2.058 -6.896,-1.488 -9.656,-3.427 -57.017,-40.059 -113.795,-80.418 -171.119,-120.088 -10.622,-7.351 -10.52,-15.238 -7.192,-25.598 9.577,0.208 14.568,7.478 22.356,11.865 z"
     id="path13"
     style="fill:#ffffff;stroke:#ffffff" />
  <path
     d="m 889.272,730.71675 c 4.894,7.344 2.674,13.068 -2.564,20.357 -21.127,-14.669 -41.746,-28.871 -62.234,-43.237 -36.709,-25.742 -73.024,-51.986 -110.184,-77.143 -11.714,-7.931 -15.376,-16.572 -10.286,-32.048 62.251,44.286 123.41,87.793 185.268,132.071 z"
     id="path14"
     style="fill:#ffffff;stroke:#ffffff" />
  <path
     d="m 263.41,765.20275 c 0.581,26.085 0.741,50.966 0.968,75.847 0.057,6.199 -0.598,11.193 -9.556,11.079 -8.819,-0.114 -9.568,-5.037 -9.551,-11.256 0.059,-22.707 -0.176,-45.416 0.085,-68.121 0.144,-12.528 3.475,-13.998 18.054,-7.549 z"
     id="path15"
     style="fill:#ffffff;stroke:#ffffff" />
  <path
     d="m 389.736,613.49675 c -1.069,3.449 -1.265,6.773 -3.122,8.169 -18.758,14.1 -37.788,27.885 -58.182,42.813 -3.526,-13.149 -5.827,-22.501 7.128,-30.499 17.372,-10.724 33.41,-23.333 49.682,-34.892 6.125,4.58 4.411,9.193 4.494,14.409 z"
     id="path16"
     style="fill:#ffffff;stroke:#ffffff" />
  <path
     d="m 153.225,682.05875 c 7.46,0.014 13.567,0.218 19.657,-10e-4 7.242,-0.262 10.017,3.259 10.442,9.494 0.454,6.651 -2.819,9.85 -9.801,9.886 -12.197,0.063 -24.395,0.095 -36.592,0.085 -7.161,-0.006 -9.78,-3.66 -9.735,-10.071 0.048,-6.869 3.88,-9.309 10.594,-9.27 4.691,0.028 9.383,-0.076 15.435,-0.123 z"
     id="path17"
     style="fill:#ffffff;stroke:#ffffff" />
  <path
     d="m 1499.89,396.52975 c -19.2,-6 -34.4,-10.2 -45.6,-12.6 -11.2,-2.8 -24.8,-4.2 -40.8,-4.2 -32.4,0 -57.4,13.2 -75,39.6 -17.6,26.4 -26.4,62.6 -26.4,108.6 0,39.6 7.4,73.8 22.2,102.6 14.8,28.8 39.6,43.2 74.4,43.2 17.2,0 33.2,-1.8 48,-5.4 15.2,-3.6 29,-8 41.4,-13.2 l 29.4,57.6 c -15.6,8 -34.4,14.4 -56.4,19.2 -22,4.8 -41.4,7.2 -58.2,7.2 -63.6,0 -109.8,-20.4 -138.6,-61.2 -28.8,-40.8 -43.2,-90.6 -43.2,-149.4 0,-62.8 15.8,-114.2 47.4,-154.2 32,-40 77.8,-60 137.4,-60 12,0 28.6,2 49.8,6 21.2,4 40.6,10.8 58.2,20.4 z m 132.46,244.2 c 12.4,6.4 28.2,12.8 47.4,19.2 19.2,6.4 37.4,9.6 54.6,9.6 24.4,0 42.6,-3.8 54.6,-11.4 12.4,-7.6 18.6,-18.6 18.6,-33 0,-13.6 -8.2,-25.6 -24.6,-36 -16,-10.8 -33.8,-21.2 -53.4,-31.2 -28.8,-14.8 -56.4,-32 -82.8,-51.6 -26,-20 -39,-48 -39,-84 0,-30.8 12.2,-56.6 36.6,-77.4 24.4,-21.2 59,-31.8 103.8,-31.8 20.4,0 40.8,3.2 61.2,9.6 20.4,6.4 38.4,13.4 54,21 l -25.8,62.4 c -12.4,-6 -25.8,-11.6 -40.2,-16.8 -14.4,-5.6 -30.4,-8.4 -48,-8.4 -17.2,0 -31.8,3.4 -43.8,10.2 -11.6,6.8 -17.4,17.2 -17.4,31.2 0,14.8 7,27.2 21,37.2 14.4,9.6 31.6,19.4 51.6,29.4 l 4.2,2.4 c 28.8,14.8 56.4,32.4 82.8,52.8 26.8,20 40.2,47.4 40.2,82.2 0,32.4 -13.2,59.2 -39.6,80.4 -26,21.2 -63.6,31.8 -112.8,31.8 -17.2,0 -39.4,-3.8 -66.6,-11.4 -26.8,-7.6 -44.8,-15.4 -54,-23.4 z"
     fill="#d35400"
     id="path18" />
  <path
     d="m 2263.41,730.72975 h -269.4 v -408 h 77.4 v 347.4 h 180 z m 112.18,-420 c 12.4,0 22.8,4.2 31.2,12.6 8.8,8.4 13.2,18.8 13.2,31.2 0,12.4 -4.4,22.8 -13.2,31.2 -8.4,8.4 -18.8,12.6 -31.2,12.6 -12,0 -22.2,-4.2 -30.6,-12.6 -8.4,-8.4 -12.6,-18.8 -12.6,-31.2 0,-12.4 4.2,-22.8 12.6,-31.2 8.4,-8.4 18.6,-12.6 30.6,-12.6 z m 39,129 v 291 h -78 v -291 z m 187.11,-132.6 v 141.6 c 11.6,-6.4 23.8,-11.4 36.6,-15 13.2,-3.6 25,-5.4 35.4,-5.4 42.8,0 75.6,14.8 98.4,44.4 22.8,29.6 34.2,66.4 34.2,110.4 0,44 -11.8,80.8 -35.4,110.4 -23.2,29.6 -55.6,44.4 -97.2,44.4 -13.6,0 -28.8,-2.8 -45.6,-8.4 -16.8,-5.6 -31.8,-13.4 -45,-23.4 l -19.2,24.6 h -39.6 v -417 z m 51.6,364.2 c 26.8,0 45.6,-9.6 56.4,-28.8 10.8,-19.6 16.2,-39.4 16.2,-59.4 0,-22.8 -4.8,-43.2 -14.4,-61.2 -9.6,-18 -29,-27 -58.2,-27 -8.4,0 -17.2,1.6 -26.4,4.8 -8.8,2.8 -17.2,6.8 -25.2,12 v 142.8 c 8,4.8 16.4,8.8 25.2,12 9.2,3.2 18,4.8 26.4,4.8 z"
     id="path19"
     style="fill:#ffffff;stroke:#ffffff" />
</svg>
