<?xml version="1.0" encoding="UTF-8" standalone="no"?>
<!-- Created with Inkscape (http://www.inkscape.org/) -->

<svg
   version="1.1"
   id="svg2"
   width="9578.8936"
   height="7904.3066"
   viewBox="0 0 9578.8936 7904.3066"
   sodipodi:docname="data-choreographies-system.svg"
   inkscape:version="1.2.2 (b0a8486541, 2022-12-01)"
   xmlns:inkscape="http://www.inkscape.org/namespaces/inkscape"
   xmlns:sodipodi="http://sodipodi.sourceforge.net/DTD/sodipodi-0.dtd"
   xmlns="http://www.w3.org/2000/svg"
   xmlns:svg="http://www.w3.org/2000/svg">
  <defs
     id="defs6" />
  <sodipodi:namedview
     id="namedview4"
     pagecolor="#ffffff"
     bordercolor="#000000"
     borderopacity="0.25"
     inkscape:showpageshadow="2"
     inkscape:pageopacity="0.0"
     inkscape:pagecheckerboard="true"
     inkscape:deskcolor="#d1d1d1"
     showgrid="false"
     inkscape:zoom="0.10337833"
     inkscape:cx="4381.9628"
     inkscape:cy="3356.6029"
     inkscape:window-width="1920"
     inkscape:window-height="1138"
     inkscape:window-x="0"
     inkscape:window-y="26"
     inkscape:window-maximized="1"
     inkscape:current-layer="g12">
    <inkscape:page
       x="0"
       y="0"
       id="page8"
       width="9578.8936"
       height="7904.3066" />
  </sodipodi:namedview>
  <g
     id="g10"
     inkscape:groupmode="layer"
     inkscape:label="Page 1"
     transform="matrix(1.3333333,0,0,-1.3333333,-1779.28,7904.3065)">
    <g
       id="g12"
       transform="scale(0.1)">
      <path
         d="m 29820.8,18348.1 c -2.1,103.3 -4.9,88.5 -8.2,190.8 -3.3,102.2 -6.1,203.9 -8.3,305 -4.4,132 -9.3,264 -14.8,395.9 -5.5,132 -11.5,261.8 -18.2,389.3 -4.4,132 -30.2,246.9 -77.5,344.7 -47.3,97.9 -109.8,147.8 -189,200.6 -79.2,52.7 -141.6,70.3 -247.1,70.3 -101.2,0 -156.4,-17.6 -237.8,-70.3 -81.3,-52.8 -145.3,-102.7 -190.4,-200.6 -45,-97.8 -70.9,-212.7 -77.5,-344.7 -6.6,-127.5 -12,-257.3 -16.5,-389.3 -4.4,-131.9 -8.7,-263.9 -13.2,-395.9 -4.4,-101.1 -8.2,-202.8 -11.5,-305 -3.3,-102.3 -6,-87.5 -8.2,-190.8 H 28390 c 4.5,121 8.3,123.1 11.6,241.9 3.3,118.7 7.2,237.5 11.6,356.2 6.6,118.7 11,237.5 13.1,356.3 2.3,118.8 6.7,238.6 13.2,359.6 13.2,277 93,493.7 239.2,649.8 123.2,131.5 279.8,206.9 469.2,227.7 -305.7,52.9 -538.4,318.8 -538.4,639.6 0,358.9 290.9,649.8 649.8,649.8 358.9,0 649.8,-290.9 649.8,-649.8 0,-320.5 -232.1,-586.1 -537.3,-639.5 111.9,-12.9 213,-45.4 303.2,-97.5 119.9,-69.2 215,-171 285.3,-305.1 70.4,-134.2 108.9,-292.5 115.5,-475 6.6,-121 12.1,-240.8 16.5,-359.6 4.4,-118.8 8.8,-237.6 13.2,-356.3 4.4,-118.7 8.2,-237.5 11.5,-356.2 3.3,-118.8 7.2,-120.9 11.5,-241.9 z m -2112.2,5207.5 -3380.3,-4724.7 6681.7,-2609.4 3380.3,4724.7 -6681.7,2609.4"
         style="fill:#ddb55e;fill-opacity:1;fill-rule:nonzero;stroke:none;stroke-width:0.99750002;stroke-dasharray:none"
         id="path14" />
      <path
         d="m 56119.5,46952.8 c 159,-151.1 414.8,-398.3 443.4,-413.2 28.8,27.4 62.4,57.1 62.4,57.1 0,0 417.1,356.9 602.9,522.1 -283.4,294.1 -933.2,876.4 -938.4,879 -5.1,2.6 -19.1,4.5 -26.2,2.6 -52.2,-33.3 -305.8,-241.9 -441,-337.3 -135.1,-95.4 -206.6,-162.2 -217.1,-183.2 -3.5,-17.6 355,-376.1 514,-527.1"
         style="fill:#ddb55e;fill-opacity:1;fill-rule:nonzero;stroke:none;stroke-width:0.99750002;stroke-dasharray:none"
         id="path16" />
      <path
         d="m 57512,44186.1 c -15.8,-18.3 -32.6,-36.4 -50.4,-54.2 -17.7,-17.7 -401.4,-391.1 -726.3,-700 0,0 -140.2,-134.2 -140.9,-133.8 0,0 -2.6,-6 -11.5,-2.6 -15,9.9 -31,21.9 -48.9,37.7 -22.5,20.1 -46.3,42.6 -71.5,67.8 -25.2,25.2 -570,580.3 -1031.3,1057.5 l -189.4,210.7 c -5.4,178.2 -7.3,429.6 -4.9,533.4 21.6,-14 44.1,-31.5 67.5,-52.5 23.3,-20.8 46.8,-43 70.2,-66.4 23.3,-23.4 662.4,-641.7 1031.2,-1025.8 0,0 179.3,-167.2 190.5,-166.6 l 7.5,1.3 c 16.5,19 75.1,83.1 91.6,99.6 16.5,16.4 466.6,424 726.3,668.3 l 124.4,127.5 c 3.8,-171.5 2.4,-394.6 8.7,-544 -12.7,-20.3 -26.9,-39.5 -42.8,-57.9 z m -2275.1,1847.3 c 21.6,-14.1 44.1,-31.6 67.5,-52.5 23.3,-20.8 46.8,-43 70.2,-66.4 23.3,-23.4 662.4,-641.7 1031.2,-1025.9 0,0 179.3,-167.1 190.5,-166.5 l 7.5,1.3 c 16.5,19 75.1,83.1 91.6,99.5 16.5,16.5 466.6,424 726.3,668.4 l 124.4,127.5 c 3.8,-171.5 -4,-387.8 2.4,-547.8 -12.7,-20.2 -20.6,-35.8 -36.5,-54.2 -15.8,-18.3 -32.6,-36.4 -50.4,-54.1 -17.7,-17.8 -401.4,-391.1 -726.3,-700 0,0 -140.2,-134.2 -140.9,-133.8 0,0 -2.6,-6 -11.5,-2.6 -15,9.9 -31,21.9 -48.9,37.7 -22.5,20.1 -46.3,42.6 -71.5,67.8 -25.2,25.1 -570,580.2 -1031.3,1057.5 l -189.4,210.7 c -5.4,178.2 -7.3,429.6 -4.9,533.4 z m 0,830.8 c 21.6,-14.1 44.1,-31.6 67.5,-52.5 23.3,-20.9 46.8,-43.1 70.2,-66.5 23.3,-23.3 662.4,-641.7 1031.2,-1025.8 0,0 179.3,-167.2 190.5,-166.6 l 7.5,1.4 c 16.5,19 75.1,83 91.6,99.5 16.5,16.5 466.6,424 726.3,668.3 l 124.4,127.5 c 3.8,-171.4 2.4,-399.7 2.4,-547 -12.7,-20.2 -20.6,-36.5 -36.5,-54.9 -15.8,-18.3 -32.6,-36.4 -50.4,-54.1 -17.7,-17.8 -401.4,-391.1 -726.3,-700.1 0,0 -140.2,-134.2 -140.9,-133.7 0,0 -2.6,-6.1 -11.5,-2.7 -15,9.9 -31,21.9 -48.9,37.7 -22.5,20.1 -46.3,42.6 -71.5,67.8 -25.2,25.2 -570,580.3 -1031.3,1057.6 l -189.4,210.6 c -5.4,178.2 -7.3,429.6 -4.9,533.5 z m 943.4,1350.9 c 80.6,58 94.2,58.8 94.2,58.8 0,0 105.9,-82.4 235.5,-176.6 129.5,-94.2 832.7,-773.4 1040.3,-981.6 -1.8,-168.9 -2.7,-286.5 -1.8,-424.3 -12.7,-20.2 -20.4,-36.8 -36.3,-55.1 -15.8,-18.3 -32.6,-36.5 -50.3,-54.2 -17.8,-17.7 -401.5,-359.4 -726.3,-668.3 0,0 -139.9,-132.1 -153.9,-132.1 -13.8,1.7 -29.6,17.6 -47.4,33.4 -22.6,20 -46.4,42.6 -71.6,67.8 -25.2,25.1 -569.9,548.5 -1031.2,1025.8 l -188,213 c 0,182.9 -2.6,147.3 -6.4,372.9 0,0 849,661.6 943.2,720.5 z m -1435.6,1236.1 -3380.4,-4724.6 6681.7,-2609.4 3380.4,4724.6 -6681.7,2609.4"
         style="fill:#ddb55e;fill-opacity:1;fill-rule:nonzero;stroke:none;stroke-width:0.99750002;stroke-dasharray:none"
         id="path18" />
      <path
         d="m 61164.3,25782.4 c 0,-40.3 -1.5,-80.6 -4.7,-120.9 -3,-40.3 -9.2,-79 -18.5,-116.2 -290,-19 -571.7,-33.6 -846.3,-44.2 3.2,-128.7 7.1,-334.1 3.4,-439.6 -6.5,-180.2 -268.1,-338.8 -268.1,-338.8 l -47.2,-17.2 h -1548.4 l 4.3,60 c 72.4,45.4 306.4,153.8 450.4,308.9 55.9,60.2 71.6,281.4 75.8,421.5 -8.5,0.2 -16.8,0.3 -25.3,0.6 -311.5,10.8 -632.9,27.1 -964.6,48.8 -9.3,37.2 -15.5,75.9 -18.5,116.2 -3.2,40.3 -4.7,80.6 -4.7,120.9 0,28.5 0,1495.7 0,1524.2 0,40.3 1.5,80.6 4.7,120.8 3,40.3 9.2,79 18.5,116.2 331.7,21.8 653.1,38.1 964.6,48.9 65.9,2.3 130.6,3.3 196.1,5.1 40.4,6.4 322.1,9.6 422.3,8.5 100.2,1.1 421,-2.6 481.5,-10 45.8,-1.4 90.9,-2 136.9,-3.6 311.5,-10.8 632.9,-27.1 964.6,-48.9 9.3,-37.2 15.5,-75.9 18.5,-116.2 3.2,-40.2 4.7,-80.5 4.7,-120.8 0,-28.5 0,-1495.7 0,-1524.2 z m -3256.9,4040.5 -3380.3,-4724.6 6681.7,-2609.4 3380.3,4724.6 -6681.7,2609.4"
         style="fill:#ddb55e;fill-opacity:1;fill-rule:nonzero;stroke:none;stroke-width:0.99750002;stroke-dasharray:none"
         id="path20" />
      <path
         d="m 60857.9,27254 c -272.3,18.2 -536.3,31.7 -792,40.7 -37.8,1.3 -74.8,1.9 -112.4,3 -49.7,6.2 -313.1,9.3 -395.4,8.3 -82.3,1 -313.5,-1.7 -346.8,-7 -53.7,-1.5 -106.8,-2.4 -161,-4.3 -255.7,-9 -519.7,-22.5 -792,-40.7 -7.7,-31 -12.8,-63.3 -15.3,-96.8 -2.6,-33.6 -3.8,-67.2 -3.8,-100.8 0,-23.7 0,-1000.1 0,-1023.8 0,-33.6 1.2,-67.2 3.8,-100.8 2.5,-33.6 7.6,-65.8 15.3,-96.8 272.3,-18.2 536.3,-31.7 792,-40.7 37.8,-1.4 74.8,-1.9 112.4,-3 49.7,-6.2 313.1,-9.3 395.4,-8.4 82.3,-0.9 313.6,1.8 346.8,7.1 53.7,1.5 106.8,2.4 161,4.3 255.8,9 519.7,22.5 792,40.7 7.7,31 12.8,63.2 15.3,96.8 2.6,33.6 3.8,67.2 3.8,100.8 0,23.7 0,1000.1 0,1023.8 0,33.6 -1.2,67.2 -3.8,100.8 -2.5,33.5 -7.6,65.8 -15.3,96.8"
         style="fill:#ddb55e;fill-opacity:1;fill-rule:nonzero;stroke:none;stroke-width:0.99750002;stroke-dasharray:none"
         id="path22" />
      <path
         d="m 29295.9,24825.8 118.1,-431.6 392.6,-214.7 -1021.3,-282 510.6,928.3"
         style="fill:#ddb55e;fill-opacity:1;fill-rule:nonzero;stroke:none;stroke-width:0.99750002;stroke-dasharray:none"
         id="path56" />
      <path
         d="m 35856.6,21573.6 -103.9,-435.2 241.2,-376.9 -1031.2,243.5 893.9,568.6"
         style="fill:#ddb55e;fill-opacity:1;fill-rule:nonzero;stroke:none;stroke-width:0.99750002;stroke-dasharray:none"
         id="path58" />
      <path
         d="m 53962.9,42176.6 97.8,137.7 c 61.3,-51.9 132.6,-94 220.8,-94 106.9,0 181.2,50.8 181.2,147 0,93.7 -72.2,144.4 -170.6,144.4 -62.3,0 -94.6,-11.7 -157.8,-47.5 l -96.9,62.6 25.8,473.3 h 574.2 v -182.9 h -386.7 l -15.5,-175.3 c 42.8,15.1 76.7,21.4 123,21.4 172.6,0 322.3,-91.5 322.3,-290.9 0,-208 -174.7,-327.4 -367.7,-327.4 -162.8,0 -272.3,58.2 -349.9,131.6"
         style="fill:#ddb55e;fill-opacity:1;fill-rule:nonzero;stroke:none;stroke-width:0.99750002;stroke-dasharray:none"
         id="path60" />
      <path
         d="m 33437.6,18341.2 h 252.3 v 541.6 h -207.8 v 135.1 c 126.6,19 193.2,42.2 265.5,85.3 h 159.7 v -762 h 213 v -175.4 h -682.7 v 175.4"
         style="fill:#ddb55e;fill-opacity:1;fill-rule:nonzero;stroke:none;stroke-width:0.99750002;stroke-dasharray:none"
         id="path62" />
      <path
         d="m 53368.2,24664.4 c 268.7,225.5 449.3,384.3 449.3,519.5 0,90.7 -56.4,140.4 -154.7,140.4 -74.7,0 -135.5,-45.9 -188.6,-95.1 l -116.6,117.3 c 97.3,98.4 191.4,148.5 334.9,148.5 197.4,0 331.5,-118.2 331.5,-298.8 0,-157.9 -162.2,-326.1 -344.1,-484.4 53.7,5.5 121.7,10.6 170.3,10.6 h 222.2 v -182.5 h -704.2 v 124.5"
         style="fill:#ddb55e;fill-opacity:1;fill-rule:nonzero;stroke:none;stroke-width:0.99750002;stroke-dasharray:none"
         id="path64" />
      <path
         d="m 31991.5,22660.1 100.3,137.2 c 61.9,-54.7 143.7,-94.7 228.5,-94.7 101.8,0 175.3,39.8 175.3,111.6 0,82.4 -63.5,133.1 -282.3,133.1 v 153.7 c 183.5,0 252,51.2 252,125.6 0,65.5 -53.7,102.8 -138.6,102.8 -73.7,0 -134.6,-30.2 -198.7,-81.6 l -109.6,132.1 c 91,74.3 197,120.2 318,120.2 204.9,0 346.6,-92.4 346.6,-257.2 0,-96.6 -67.1,-165.7 -179.4,-208.4 v -5.9 c 118,-30.8 209.8,-107.1 209.8,-228.4 0,-174.3 -173.7,-272.9 -371.9,-272.9 -160.2,0 -277.5,53.9 -350,132.8"
         style="fill:#ddb55e;fill-opacity:1;fill-rule:nonzero;stroke:none;stroke-width:0.99750002;stroke-dasharray:none"
         id="path66" />
      <path
         d="m 57527.5,30552.3 141,203.8 c 33.2,53.2 71.4,106.4 102.3,159.6 h 6.4 c -3,-60.2 -8.1,-146 -8.5,-206.2 v -157.2 z m 562.1,0 h -118.4 v 547.8 h -262.3 l -391.6,-563.4 v -150.4 h 451.4 v -223.5 h 202.5 v 223.5 h 118.4 v 166"
         style="fill:#ddb55e;fill-opacity:1;fill-rule:nonzero;stroke:none;stroke-width:0.99750002;stroke-dasharray:none"
         id="path68" />
      <path
         d="m 53438.4,41965.8 c -61.3,0 -121.7,28.1 -160.9,81.1 -65.8,88.8 -47,214 41.8,279.7 l 8,6 c 88.8,65.7 214,46.9 279.7,-41.8 65.7,-88.8 47,-214.1 -41.8,-279.8 l -8,-5.9 c -35.8,-26.5 -77.5,-39.3 -118.8,-39.3 z m -619.1,-457.9 c -61.2,0 -121.7,28.1 -160.9,81.1 -65.7,88.8 -47,214.1 41.9,279.7 l 8,6 c 88.8,65.7 214,46.9 279.7,-41.9 65.7,-88.8 46.9,-214.1 -41.9,-279.7 l -8,-6 c -35.8,-26.4 -77.5,-39.2 -118.8,-39.2 z m -619,-457.9 c -61.3,0 -121.8,28.1 -161,81.2 -65.7,88.8 -46.9,214 42,279.7 l 8,5.9 c 88.9,65.7 214.1,46.8 279.7,-42 65.7,-88.8 46.9,-214.1 -42,-279.7 l -8,-5.9 c -35.8,-26.5 -77.4,-39.2 -118.7,-39.2 z m -619,-457.9 c -61.3,0 -121.8,28 -161,81.1 -65.7,88.8 -46.9,214 41.9,279.7 l 8,6 c 88.8,65.6 214.1,46.9 279.7,-41.9 65.7,-88.8 47,-214.1 -41.8,-279.8 l -8.1,-5.9 c -35.8,-26.5 -77.4,-39.2 -118.7,-39.2 z m -619.1,-457.9 c -61.3,0 -121.7,28 -161,81.1 -65.6,88.8 -46.9,214 41.9,279.7 l 8.1,5.9 c 88.8,65.7 214,47 279.7,-41.8 65.7,-88.9 46.9,-214.1 -41.9,-279.8 l -8,-5.9 c -35.8,-26.5 -77.5,-39.2 -118.8,-39.2 z m -619,-457.9 c -61.3,0 -121.7,28 -161,81 -65.7,88.8 -47,214 41.8,279.7 l 8.1,6 c 88.8,65.7 214,47 279.7,-41.8 65.7,-88.8 47,-214 -41.8,-279.8 l -8,-5.9 c -35.8,-26.5 -77.5,-39.2 -118.8,-39.2 z m -619.1,-458 c -61.2,0 -121.7,28.1 -160.9,81.1 -65.7,88.8 -47,214 41.8,279.7 l 8,6 c 88.8,65.7 214.1,47 279.8,-41.8 65.7,-88.8 47,-214.1 -41.8,-279.8 l -8.1,-5.9 c -35.7,-26.5 -77.5,-39.3 -118.8,-39.3 z m -619,-457.9 c -61.3,0 -121.7,28.1 -160.9,81.1 -65.8,88.8 -47,214 41.8,279.7 l 8,6 c 88.8,65.7 214,47 279.7,-41.8 65.7,-88.8 47,-214.1 -41.8,-279.8 l -8,-5.9 c -35.8,-26.5 -77.5,-39.3 -118.8,-39.3 z m -619.1,-457.9 c -61.2,0 -121.7,28 -160.9,81.1 -65.7,88.8 -47,214 41.8,279.7 l 8,6 c 88.8,65.7 214.1,46.9 279.8,-41.9 65.7,-88.7 47,-214 -41.8,-279.7 l -8.1,-5.9 c -35.7,-26.5 -77.4,-39.3 -118.8,-39.3 z m -619,-457.9 c -61.3,0 -121.7,28 -160.9,81.1 -65.7,88.7 -47,214 41.8,279.7 l 8,5.9 c 88.8,65.7 214,47 279.7,-41.8 65.7,-88.8 47,-214 -41.8,-279.7 l -8,-6 c -35.8,-26.4 -77.5,-39.2 -118.8,-39.2 z m -619.1,-457.9 c -61.2,0 -121.6,28 -160.9,81 -65.7,88.8 -47,214.1 41.8,279.8 l 8.1,5.9 c 88.7,65.7 214,47 279.7,-41.8 65.7,-88.8 47,-214 -41.8,-279.7 l -8,-6 c -35.8,-26.4 -77.5,-39.2 -118.9,-39.2 z m -619,-457.9 c -61.2,0 -121.7,28 -160.9,81 -65.7,88.8 -47,214.1 41.8,279.8 l 8,5.9 c 88.8,65.7 214,47 279.8,-41.8 65.7,-88.8 46.9,-214 -41.9,-279.7 l -8,-6 c -35.8,-26.5 -77.5,-39.2 -118.8,-39.2 z m -619,-457.9 c -61.3,0 -121.8,28 -161,81.1 -65.7,88.8 -46.9,214 41.9,279.7 l 8,5.9 c 88.8,65.7 214.1,47 279.7,-41.9 65.7,-88.8 47,-214 -41.8,-279.7 l -8.1,-5.9 c -35.7,-26.5 -77.4,-39.2 -118.7,-39.2 z m -619.1,-458 c -61.3,0 -121.7,28.1 -161,81.1 -65.6,88.9 -46.9,214.1 41.9,279.8 l 8.1,5.9 c 88.8,65.7 214,46.9 279.7,-41.9 65.7,-88.8 46.9,-214 -41.9,-279.7 l -8,-5.9 c -35.8,-26.5 -77.5,-39.3 -118.8,-39.3 z m -619,-457.9 c -61.3,0 -121.8,28.1 -161,81.1 -65.7,88.8 -46.9,214.1 41.9,279.8 l 8,5.9 c 88.8,65.7 214.1,46.9 279.8,-41.9 65.6,-88.8 46.9,-214 -41.9,-279.7 l -8.1,-6 c -35.7,-26.4 -77.4,-39.2 -118.7,-39.2 z m -619.1,-457.9 c -61.2,0 -121.7,28.1 -160.9,81.1 -65.7,88.8 -47,214.1 41.8,279.7 l 8.1,6 c 88.8,65.7 214,46.9 279.7,-41.9 65.7,-88.8 46.9,-214 -41.9,-279.7 l -8,-6 c -35.8,-26.4 -77.5,-39.2 -118.8,-39.2 z m -619,-457.9 c -61.3,0 -121.8,28.1 -161,81.1 -65.7,88.8 -46.9,214 41.9,279.7 l 8,6 c 88.9,65.6 214.1,46.9 279.8,-41.9 65.6,-88.8 46.9,-214.1 -41.9,-279.7 l -8.1,-6 c -35.7,-26.4 -77.4,-39.2 -118.7,-39.2 z m -619.1,-457.9 c -61.2,0 -121.7,28 -160.9,81 -65.7,88.8 -47,214.1 41.8,279.8 l 8.1,5.9 c 88.7,65.7 214,47 279.7,-41.8 65.7,-88.8 47,-214 -41.8,-279.7 l -8.1,-6 c -35.7,-26.4 -77.4,-39.2 -118.8,-39.2 z m -619,-457.9 c -61.3,0 -121.7,28 -160.9,81 -65.7,88.8 -47,214.1 41.8,279.8 l 8,5.9 c 88.8,65.7 214,47 279.7,-41.8 65.7,-88.8 47,-214 -41.8,-279.7 l -8,-6 c -35.8,-26.5 -77.5,-39.2 -118.8,-39.2 z m -619,-457.9 c -61.3,0 -121.7,28 -161,81 -65.7,88.8 -47,214 41.8,279.7 l 8.1,6 c 88.7,65.7 214,47 279.7,-41.8 65.7,-88.8 47,-214 -41.8,-279.7 l -8,-6 c -35.8,-26.5 -77.5,-39.2 -118.8,-39.2 z m -619.1,-457.9 c -61.3,0 -121.7,28 -161,81 -65.6,88.9 -46.9,214.1 41.9,279.8 l 8.1,5.9 c 88.8,65.7 214,46.9 279.7,-41.9 65.7,-88.8 46.9,-214 -41.9,-279.7 l -8,-5.9 c -35.8,-26.5 -77.5,-39.2 -118.8,-39.2 z m -619,-458 c -61.3,0 -121.8,28.1 -161,81.1 -65.7,88.8 -46.9,214.1 41.9,279.8 l 8,5.9 c 88.8,65.7 214.1,46.9 279.8,-41.9 65.6,-88.8 46.9,-214 -41.9,-279.7 l -8.1,-6 c -35.7,-26.4 -77.4,-39.2 -118.7,-39.2 z m -619.1,-457.9 c -61.3,0 -121.7,28.1 -160.9,81.1 -65.7,88.8 -47,214.1 41.8,279.7 l 8.1,6 c 88.8,65.7 214,46.9 279.7,-41.9 65.7,-88.8 46.9,-214 -41.9,-279.7 l -8,-6 c -35.8,-26.4 -77.5,-39.2 -118.8,-39.2 z m -619,-457.9 c -61.3,0 -121.8,28.1 -161,81.1 -65.7,88.8 -46.9,214 41.9,279.7 l 8,6 c 88.8,65.7 214.1,46.9 279.8,-41.9 65.6,-88.8 46.9,-214.1 -41.9,-279.7 l -8.1,-6 c -35.7,-26.4 -77.4,-39.2 -118.7,-39.2 z m -619.1,-457.9 c -61.2,0 -121.7,28 -160.9,81.1 -65.7,88.8 -47,214 41.9,279.7 l 8,6 c 88.8,65.7 214.1,46.9 279.7,-41.9 65.7,-88.8 46.9,-214.1 -41.9,-279.7 l -8,-6 c -35.8,-26.4 -77.5,-39.2 -118.8,-39.2 z m -619,-457.9 c -61.3,0 -121.7,28 -160.9,81 -65.7,88.8 -47,214.1 41.8,279.8 l 8,5.9 c 88.8,65.7 214,47 279.7,-41.8 65.7,-88.8 47,-214 -41.8,-279.7 l -8,-6 c -35.8,-26.5 -77.5,-39.2 -118.8,-39.2 z m -619,-457.9 c -61.3,0 -121.7,28 -161,81 -65.7,88.8 -47,214 41.8,279.8 l 8.1,5.9 c 88.8,65.7 214,47 279.7,-41.8 65.7,-88.8 47,-214 -41.8,-279.7 l -8,-6 c -35.8,-26.5 -77.5,-39.2 -118.8,-39.2 z m -619.1,-457.9 c -61.2,0 -121.7,28 -160.9,81 -65.7,88.8 -47,214 41.8,279.7 l 8,6 c 88.8,65.7 214.1,47 279.8,-41.8 65.7,-88.8 46.9,-214.1 -41.9,-279.8 l -8,-5.9 c -35.8,-26.5 -77.5,-39.2 -118.8,-39.2 z m -619,-458 c -61.3,0 -121.7,28.1 -161,81.1 -65.7,88.8 -47,214 41.8,279.7 l 8.1,6 c 88.8,65.7 214,47 279.7,-41.8 65.7,-88.8 47,-214.1 -41.8,-279.8 l -8,-5.9 c -35.8,-26.5 -77.5,-39.3 -118.8,-39.3 z m -619.1,-457.9 c -61.2,0 -121.7,28.1 -160.9,81.1 -65.7,88.8 -47,214 41.8,279.7 l 8,6 c 88.8,65.7 214.1,46.9 279.8,-41.8 65.7,-88.8 47,-214.1 -41.8,-279.8 l -8.1,-5.9 c -35.7,-26.5 -77.4,-39.3 -118.8,-39.3 z m -619,-457.9 c -61.3,0 -121.7,28 -161,81.1 -65.7,88.7 -46.9,214 41.9,279.7 l 8,5.9 c 88.8,65.7 214,47 279.7,-41.8 65.7,-88.8 47,-214 -41.8,-279.7 l -8,-5.9 c -35.8,-26.5 -77.5,-39.3 -118.8,-39.3 z m -619.1,-457.9 c -61.2,0 -121.7,28 -160.9,81 -65.7,88.8 -47,214.1 41.8,279.8 l 8,5.9 c 88.8,65.7 214.1,47 279.8,-41.8 65.7,-88.8 47,-214 -41.8,-279.7 l -8.1,-6 c -35.7,-26.4 -77.4,-39.2 -118.8,-39.2 z m -619,-457.9 c -61.3,0 -121.7,28 -160.9,81 -65.7,88.8 -47,214.1 41.8,279.8 l 8,5.9 c 88.8,65.7 214,47 279.7,-41.8 65.7,-88.8 47,-214 -41.8,-279.7 l -8,-6 c -35.8,-26.4 -77.5,-39.2 -118.8,-39.2 z m -619.1,-457.9 c -61.2,0 -121.6,28 -160.9,81 -65.7,88.8 -47,214 41.8,279.8 l 8.1,5.9 c 88.7,65.7 214,47 279.7,-41.8 65.7,-88.8 47,-214 -41.8,-279.7 l -8,-6 c -35.8,-26.5 -77.5,-39.2 -118.9,-39.2 z m -619,-457.9 c -61.3,0 -121.7,28 -161,81 -65.6,88.9 -46.9,214.1 41.9,279.8 l 8.1,5.9 c 88.8,65.7 214,46.9 279.7,-41.9 65.7,-88.8 46.9,-214 -41.9,-279.7 l -8,-5.9 c -35.8,-26.5 -77.5,-39.2 -118.8,-39.2 z m -619,-458 c -61.3,0 -121.8,28.1 -161,81.1 -65.7,88.8 -46.9,214.1 41.9,279.8 l 8,5.9 c 88.8,65.7 214.1,46.9 279.7,-41.9 65.7,-88.8 47,-214 -41.8,-279.7 l -8.1,-6 c -35.7,-26.4 -77.4,-39.2 -118.7,-39.2 z m -619.1,-457.9 c -61.3,0 -121.7,28.1 -160.9,81.1 -65.7,88.8 -47,214.1 41.8,279.7 l 8.1,6 c 88.8,65.7 214,46.9 279.7,-41.9 65.7,-88.8 46.9,-214 -41.9,-279.7 l -8,-6 c -35.8,-26.4 -77.5,-39.2 -118.8,-39.2 z m -619,-457.9 c -61.3,0 -121.8,28.1 -161,81.1 -65.7,88.8 -46.9,214.1 41.9,279.7 l 8,6 c 88.8,65.6 214.1,46.9 279.8,-41.9 65.6,-88.8 46.9,-214.1 -41.9,-279.7 l -8.1,-6 c -35.7,-26.4 -77.4,-39.2 -118.7,-39.2 z m -619.1,-457.9 c -61.2,0 -121.7,28 -160.9,81.1 -65.7,88.8 -47,214 41.8,279.7 l 8.1,6 c 88.8,65.7 214,46.9 279.7,-41.9 65.7,-88.8 46.9,-214.1 -41.9,-279.7 l -8,-6 c -35.8,-26.4 -77.5,-39.2 -118.8,-39.2"
         style="fill:#ddb55e;fill-opacity:1;fill-rule:nonzero;stroke:none;stroke-width:0.99750002;stroke-dasharray:none"
         id="path70" />
      <path
         d="m 55159.7,27205.5 74.7,441.1 -265.7,360.1 1045.2,-174.3 -854.2,-626.9"
         style="fill:#ddb55e;fill-opacity:1;fill-rule:nonzero;stroke:none;stroke-width:0.99750002;stroke-dasharray:none"
         id="path72" />
      <path
         d="m 53840.8,27192.7 -70.5,342.8 862,177.3 70.5,-342.8 z m -1351.7,-278 -70.5,342.8 862,177.3 70.5,-342.8 z m -1351.7,-278.1 -70.5,342.8 862,177.3 70.5,-342.8 z m -1351.7,-278 -70.5,342.8 862,177.3 70.5,-342.8 z m -1351.7,-278.1 -70.5,342.8 862,177.4 70.5,-342.9 z m -1351.7,-278 -70.5,342.8 862,177.3 70.5,-342.8 z m -1351.7,-278.1 -70.5,342.9 862,177.3 70.5,-342.9 z m -1351.7,-278 -70.5,342.8 862,177.3 70.5,-342.8 z m -1351.7,-278.1 -70.5,342.9 862,177.3 70.5,-342.9 z m -1351.7,-278 -70.5,342.8 862,177.3 70.5,-342.8 z m -1351.7,-278.1 -70.5,342.9 862,177.3 70.5,-342.9 z m -1351.7,-278 -70.5,342.8 862,177.3 70.5,-342.8 z m -1351.7,-278.1 -70.5,342.9 862,177.3 70.5,-342.8 z m -1351.7,-278 -70.5,342.8 862,177.3 70.5,-342.8 z m -1351.7,-278 -70.5,342.8 862,177.3 70.5,-342.8 z m -1351.7,-278.1 -70.5,342.8 862,177.3 70.5,-342.8 -862,-177.3"
         style="fill:#ddb55e;fill-opacity:1;fill-rule:nonzero;stroke:none;stroke-width:0.99750002;stroke-dasharray:none"
         id="path74" />
      <path
         d="m 57421,23410.2 -1045.1,174.2 192.7,-261.1 c -111,-8.4 -209.7,-26.8 -297.5,-185.8 -58.1,-105.4 -94.7,-171.8 -153.3,-183.8 -64.4,-13.2 -125.8,32.4 -221,110.4 -105.6,86.6 -237.1,194.3 -411.9,158.5 -174.9,-35.8 -253.5,-186.6 -316.7,-307.8 -56.2,-108 -94,-174.8 -159.6,-188.3 -65.6,-13.4 -126.5,33 -220.9,110.4 -105.7,86.6 -237.2,194.4 -412.1,158.6 -176.8,-36.3 -259.9,-193.2 -323,-312.4 -56.3,-106.3 -94.7,-171.8 -153.3,-183.8 -64.4,-13.1 -125.8,32.4 -221,110.4 -105.7,86.6 -237.2,194.4 -412,158.6 -174.9,-35.8 -253.4,-186.6 -316.6,-307.8 -56.2,-108.1 -94,-174.9 -159.6,-188.3 -65.6,-13.5 -126.5,33 -220.9,110.3 -105.7,86.6 -237.2,194.4 -412.1,158.6 -176.9,-36.2 -259.9,-193.2 -323,-312.3 -56.3,-106.4 -94.7,-171.8 -153.3,-183.8 -64.4,-13.2 -125.8,32.4 -221,110.4 -105.7,86.6 -237.2,194.3 -412,158.5 -174.9,-35.8 -253.5,-186.6 -316.6,-307.8 -56.2,-108 -94,-174.8 -159.7,-188.3 -65.6,-13.4 -126.4,33.1 -220.8,110.4 -105.7,86.6 -237.2,194.4 -412.1,158.6 -176.9,-36.2 -260,-193.2 -323,-312.4 -56.3,-106.3 -94.7,-171.7 -153.3,-183.7 -64.4,-13.2 -125.9,32.3 -221,110.4 -105.7,86.5 -237.2,194.3 -412,158.5 -174.9,-35.8 -253.5,-186.6 -316.6,-307.8 -56.3,-108 -94.1,-174.9 -159.7,-188.3 -65.6,-13.4 -126.5,33 -220.8,110.3 -105.7,86.7 -237.2,194.4 -412.1,158.6 -176.9,-36.2 -260,-193.2 -323,-312.3 -56.3,-106.3 -94.8,-171.8 -153.3,-183.8 -64.5,-13.2 -125.9,32.4 -221.1,110.4 -105.6,86.6 -237.1,194.4 -411.9,158.6 -174.9,-35.9 -253.5,-186.7 -316.6,-307.9 -56.3,-108 -94.1,-174.8 -159.7,-188.3 -65.6,-13.4 -126.5,33.1 -220.8,110.4 -105.7,86.6 -237.3,194.4 -412.2,158.6 -176.8,-36.2 -259.9,-193.2 -323,-312.3 -56.3,-106.4 -94.7,-171.8 -153.3,-183.8 -64.4,-13.2 -125.8,32.3 -221,110.4 -105.6,86.5 -237.1,194.3 -411.9,158.5 -174.9,-35.8 -253.5,-186.6 -316.7,-307.8 -56.2,-108 -94,-174.9 -159.6,-188.3 -65.6,-13.4 -126.5,33 -220.9,110.4 -105.7,86.6 -237.2,194.4 -412.1,158.5 -176.8,-36.2 -259.9,-193.1 -323,-312.3 -56.3,-106.3 -94.7,-171.8 -153.3,-183.8 -64.4,-13.2 -125.8,32.4 -221,110.4 -105.7,86.6 -237.2,194.4 -412,158.6 -174.9,-35.9 -253.4,-186.6 -316.6,-307.9 -56.2,-108 -94,-174.8 -159.6,-188.2 -65.6,-13.5 -126.5,33 -220.9,110.3 -105.7,86.6 -237.2,194.4 -412.1,158.6 -176.9,-36.2 -259.9,-193.2 -323,-312.3 -56.3,-106.4 -94.7,-171.8 -153.3,-183.8 -64.4,-13.2 -125.8,32.3 -221,110.4 -105.7,86.6 -237.2,194.3 -412,158.5 -174.9,-35.8 -253.5,-186.6 -316.6,-307.8 -56.2,-108 -94,-174.9 -159.7,-188.3 -65.6,-13.4 -126.4,33 -220.8,110.4 -105.7,86.6 -237.2,194.4 -412.1,158.6 -176.9,-36.3 -260,-193.2 -323,-312.4 -56.3,-106.3 -94.7,-171.8 -153.3,-183.8 -64.4,-13.2 -125.9,32.4 -221,110.4 -105.7,86.6 -237.2,194.4 -412,158.6 -174.9,-35.8 -253.5,-186.6 -316.6,-307.8 -56.3,-108.1 -94.1,-174.9 -159.7,-188.3 -65.6,-13.5 -126.5,33 -220.8,110.3 -105.7,86.6 -237.2,194.4 -412.1,158.6 -176.9,-36.2 -260,-193.2 -323,-312.3 -56.3,-106.4 -94.8,-171.8 -153.3,-183.8 -64.5,-13.2 -125.9,32.4 -221.1,110.4 -105.6,86.6 -237.1,194.3 -411.9,158.5 -174.9,-35.8 -253.5,-186.6 -316.6,-307.8 -56.3,-108 -94.1,-174.8 -159.7,-188.3 -65.6,-13.4 -126.5,33.1 -220.8,110.4 -105.7,86.6 -237.3,194.4 -412.2,158.6 l 48.2,-235.2 c 65.7,13.5 126.8,-33.1 221.5,-110.7 105.4,-86.5 236.7,-194 411.5,-158.2 174.8,35.8 253.3,186.6 316.4,307.8 56.3,108 94.1,174.9 159.8,188.3 65.6,13.5 126.7,-33.1 222.5,-111.7 105,-86 235.6,-193.1 410.5,-157.2 167.8,34.3 246.3,182.6 311.8,306.3 57.6,109 97.4,176.1 164.5,189.8 65.7,13.4 126.8,-33.2 221.5,-110.8 105.4,-86.4 236.7,-194 411.5,-158.2 174.8,35.8 253.3,186.6 316.4,307.8 56.3,108 94.1,174.9 159.9,188.4 65.6,13.4 126.6,-33.2 222.4,-111.7 105,-86 235.6,-193.1 410.5,-157.3 167.8,34.4 246.3,182.7 311.8,306.4 57.6,108.9 97.5,176 164.5,189.7 65.7,13.5 126.8,-33.1 221.5,-110.8 105.5,-86.4 236.7,-193.9 411.5,-158.1 174.8,35.8 253.3,186.6 316.5,307.8 56.2,108 94.1,174.8 159.8,188.3 65.6,13.4 126.6,-33.1 222.5,-111.7 104.9,-86 235.5,-193.1 410.5,-157.2 167.7,34.3 246.2,182.6 311.7,306.3 57.6,108.9 97.5,176 164.5,189.8 65.8,13.4 126.8,-33.2 221.5,-110.8 105.5,-86.4 236.7,-194 411.5,-158.2 174.8,35.8 253.4,186.6 316.5,307.8 56.3,108 94.1,174.9 159.8,188.3 65.6,13.5 126.7,-33.1 222.5,-111.6 104.9,-86.1 235.6,-193.1 410.5,-157.3 167.7,34.4 246.2,182.7 311.7,306.4 57.7,108.9 97.5,176 164.6,189.7 65.7,13.5 126.7,-33.1 221.5,-110.8 105.4,-86.4 236.6,-193.9 411.4,-158.1 174.8,35.8 253.4,186.6 316.5,307.8 56.3,108 94.1,174.8 159.8,188.3 65.6,13.4 126.7,-33.2 222.5,-111.7 105,-86 235.6,-193.1 410.5,-157.3 167.7,34.4 246.3,182.7 311.7,306.4 57.7,108.9 97.5,176 164.6,189.8 65.7,13.4 126.8,-33.2 221.5,-110.8 105.4,-86.4 236.7,-194 411.5,-158.2 174.8,35.8 253.3,186.6 316.4,307.8 56.3,108 94.1,174.9 159.8,188.3 65.7,13.5 126.7,-33.1 222.5,-111.7 105,-86 235.6,-193 410.5,-157.2 167.8,34.3 246.3,182.6 311.8,306.3 57.6,109 97.4,176.1 164.5,189.8 65.7,13.5 126.8,-33.2 221.5,-110.8 105.4,-86.4 236.7,-193.9 411.5,-158.1 174.8,35.8 253.3,186.5 316.4,307.8 56.3,107.9 94.1,174.8 159.9,188.3 65.6,13.4 126.6,-33.2 222.4,-111.7 105,-86 235.6,-193.1 410.5,-157.3 167.8,34.4 246.3,182.7 311.8,306.4 57.6,108.9 97.5,176 164.5,189.8 65.8,13.4 126.8,-33.2 221.5,-110.8 105.5,-86.4 236.7,-194 411.5,-158.2 174.8,35.8 253.3,186.6 316.5,307.8 56.2,108 94,174.9 159.8,188.3 65.6,13.5 126.6,-33.1 222.5,-111.7 104.9,-86 235.5,-193 410.5,-157.2 167.7,34.3 246.2,182.6 311.7,306.3 57.6,109 97.5,176.1 164.5,189.8 65.8,13.5 126.8,-33.2 221.5,-110.8 105.5,-86.4 236.7,-193.9 411.5,-158.1 174.8,35.8 253.4,186.5 316.5,307.8 56.3,107.9 94.1,174.8 159.8,188.3 65.6,13.4 126.7,-33.2 222.5,-111.7 104.9,-86 235.6,-193.1 410.5,-157.3 167.7,34.4 246.2,182.7 311.7,306.4 57.7,108.9 97.5,176 164.6,189.7 65.7,13.5 126.7,-33.1 221.4,-110.7 105.5,-86.5 236.7,-194 411.5,-158.2 174.8,35.8 253.4,186.6 316.5,307.8 56.3,108 94.1,174.9 159.8,188.3 65.6,13.4 126.7,-33.1 222.5,-111.7 105,-86 235.6,-193 410.5,-157.2 167.7,34.3 246.3,182.6 311.7,306.3 28.7,54.2 85.2,70.8 142.9,75.5 l -53.7,-317.2 854.1,627"
         style="fill:#ddb55e;fill-opacity:1;fill-rule:nonzero;stroke:none;stroke-width:0.99750002;stroke-dasharray:none"
         id="path76" />
      <path
         d="m 58045.5,38758 c 105.8,90.6 237.5,203.4 237.5,391.4 0,188.1 -132,301.1 -238.1,391.9 -94.5,80.9 -152.4,134.1 -152.4,204.8 0,70.6 57.9,123.8 154.1,206.1 105.3,90.2 236.4,202.4 236.4,390.6 0,180.5 -129.6,292.9 -237.6,386.7 -84.5,73.3 -139.4,125.1 -150.7,186.3 l 346.9,-141.4 -425.9,970.1 -397.6,-982.1 241,106.6 c 28.5,-150.1 144,-250.4 234.6,-329 92.9,-80.6 149.3,-134.1 149.3,-197.2 0,-69.3 -57,-123.1 -152.5,-204.9 -106.1,-90.7 -238,-203.7 -238,-391.8 0,-188.2 131.9,-301.2 238,-392 94.6,-80.9 152.5,-134.1 152.5,-204.7 0,-70.6 -57.8,-123.6 -152.5,-204.7 -106,-90.8 -238,-203.8 -238,-392 0,-190.2 137.1,-309.2 241.2,-399.5 92.9,-80.7 149.3,-134.2 149.3,-197.2 0,-69.3 -57,-123.1 -152.5,-204.9 -106.1,-90.7 -238,-203.7 -238,-391.8 0,-188.2 131.9,-301.2 238,-392 94.6,-80.9 152.5,-134.1 152.5,-204.7 0,-70.6 -57.8,-123.6 -152.5,-204.7 -106,-90.8 -238,-203.8 -238,-392 0,-190.2 137.1,-309.2 241.2,-399.5 92.9,-80.7 149.3,-134.2 149.3,-197.2 0,-69.3 -57,-123.1 -152.5,-204.9 -106.1,-90.7 -238,-203.7 -238,-391.8 0,-188.2 131.9,-301.2 238,-392 94.6,-80.9 152.5,-134.1 152.5,-204.7 0,-70.6 -57.8,-123.6 -152.5,-204.7 -106,-90.8 -238,-203.8 -238,-392 0,-190.3 137.1,-309.2 241.2,-399.5 92.9,-80.7 149.3,-134.2 149.3,-197.2 0,-69.3 -57,-123.1 -152.5,-204.9 -106.1,-90.7 -238,-203.7 -238,-391.8 0,-188.2 131.9,-301.2 238,-392 94.6,-80.9 152.5,-134.1 152.5,-204.7 0,-70.6 -57.8,-123.6 -152.5,-204.7 -106,-90.8 -238,-203.8 -238,-392 h 240 c 0,70.7 57.9,123.9 153,205.3 105.8,90.6 237.5,203.4 237.5,391.4 0,188.1 -132,301.1 -238.1,391.9 -94.5,80.9 -152.4,134.1 -152.4,204.8 0,70.6 57.9,123.8 154.1,206.1 105.3,90.2 236.4,202.4 236.4,390.6 0,180.5 -129.6,292.9 -237.6,386.7 -95.2,82.5 -152.9,137.9 -152.9,210 0,70.7 57.9,123.9 153,205.3 105.8,90.6 237.5,203.4 237.5,391.4 0,188.1 -132,301.1 -238.1,391.9 -94.5,80.9 -152.4,134.1 -152.4,204.8 0,70.6 57.9,123.8 154.1,206.1 105.3,90.2 236.4,202.4 236.4,390.6 0,180.5 -129.6,292.9 -237.6,386.7 -95.2,82.5 -152.9,137.9 -152.9,210 0,70.7 57.9,123.9 153,205.3 105.8,90.6 237.5,203.4 237.5,391.4 0,188.1 -132,301.1 -238.1,391.9 -94.5,80.9 -152.4,134.1 -152.4,204.8 0,70.6 57.9,123.8 154.1,206.1 105.3,90.2 236.4,202.4 236.4,390.6 0,180.5 -129.6,292.9 -237.6,386.7 -95.2,82.5 -152.9,137.9 -152.9,210 0,70.7 57.9,123.9 153,205.3"
         style="fill:#ddb55e;fill-opacity:1;fill-rule:nonzero;stroke:none;stroke-width:0.99750002;stroke-dasharray:none"
         id="path78" />
      <path
         d="m 52903.8,24472.1 c -92.9,0 -176.2,65.1 -195.6,159.7 -22.3,108.2 47.3,213.9 155.5,236.2 l 9.8,2 c 108.2,22.3 214,-47.3 236.2,-155.5 22.3,-108.2 -47.3,-214 -155.5,-236.2 l -9.8,-2.1 c -13.6,-2.8 -27.2,-4.1 -40.6,-4.1 z m -793.3,-163.2 c -93,0 -176.3,65.2 -195.7,159.8 -22.3,108.2 47.4,213.9 155.6,236.1 l 9.8,2.1 c 108.2,22.2 213.9,-47.5 236.2,-155.7 22.2,-108.2 -47.5,-213.9 -155.7,-236.2 l -9.8,-2 c -13.6,-2.8 -27.1,-4.1 -40.4,-4.1 z m -793.4,-163.2 c -93,0 -176.2,65.1 -195.7,159.7 -22.3,108.2 47.4,213.9 155.5,236.2 l 9.8,2 c 108.2,22.3 214,-47.3 236.3,-155.5 22.2,-108.2 -47.4,-214 -155.6,-236.2 l -9.8,-2.1 c -13.6,-2.8 -27.2,-4.1 -40.5,-4.1 z m -793.4,-163.2 c -93,0 -176.2,65.1 -195.7,159.7 -22.3,108.2 47.4,213.9 155.6,236.2 l 9.7,2 c 108.3,22.3 214,-47.3 236.3,-155.5 22.2,-108.2 -47.4,-214 -155.6,-236.3 l -9.8,-2 c -13.6,-2.8 -27.2,-4.1 -40.5,-4.1 z m -793.4,-163.2 c -93,0 -176.3,65.2 -195.7,159.8 -22.2,108.2 47.5,213.9 155.7,236.1 l 9.8,2.1 c 108.1,22.1 213.9,-47.5 236.1,-155.7 22.2,-108.2 -47.5,-213.9 -155.7,-236.2 l -9.8,-2 c -13.5,-2.8 -27.1,-4.1 -40.4,-4.1 z m -793.4,-163.2 c -92.9,0 -176.2,65.1 -195.7,159.7 -22.3,108.2 47.4,213.9 155.6,236.2 l 9.8,2 c 108.2,22.3 213.9,-47.3 236.2,-155.5 22.3,-108.2 -47.4,-214 -155.6,-236.2 l -9.8,-2.1 c -13.6,-2.8 -27.1,-4.1 -40.5,-4.1 z m -793.4,-163.2 c -93,0 -176.3,65.2 -195.7,159.8 -22.2,108.2 47.5,213.9 155.7,236.1 l 9.8,2 c 108.1,22.3 213.9,-47.4 236.1,-155.6 22.3,-108.2 -47.4,-213.9 -155.6,-236.2 l -9.8,-2 c -13.6,-2.8 -27.2,-4.1 -40.5,-4.1 z m -793.4,-163.2 c -92.9,0 -176.2,65.1 -195.7,159.7 -22.2,108.2 47.4,213.9 155.6,236.2 l 9.8,2 c 108.2,22.3 213.9,-47.3 236.2,-155.5 22.3,-108.2 -47.4,-214 -155.5,-236.3 l -9.8,-2 c -13.6,-2.8 -27.2,-4.1 -40.6,-4.1 z m -793.4,-163.2 c -92.9,0 -176.2,65.1 -195.7,159.7 -22.2,108.2 47.4,213.9 155.6,236.2 l 9.8,2 c 108.2,22.2 214,-47.3 236.2,-155.5 22.3,-108.2 -47.3,-214 -155.5,-236.3 l -9.8,-2 c -13.6,-2.8 -27.2,-4.1 -40.6,-4.1 z m -793.4,-163.2 c -92.9,0 -176.2,65.2 -195.7,159.8 -22.2,108.2 47.5,213.9 155.7,236.1 l 9.8,2 c 108.3,22.3 213.9,-47.4 236.2,-155.6 22.2,-108.2 -47.5,-214 -155.7,-236.2 l -9.8,-2 c -13.6,-2.8 -27.1,-4.1 -40.5,-4.1 z m -793.3,-163.2 c -93,0 -176.2,65.1 -195.7,159.7 -22.3,108.2 47.3,213.9 155.5,236.2 l 9.8,2 c 108.2,22.3 214,-47.3 236.2,-155.5 22.3,-108.2 -47.3,-214 -155.5,-236.3 l -9.8,-2 c -13.6,-2.8 -27.2,-4.1 -40.5,-4.1 z m -793.4,-163.2 c -93,0 -176.2,65.1 -195.7,159.7 -22.3,108.2 47.4,213.9 155.6,236.2 l 9.7,2 c 108.2,22.3 214,-47.3 236.3,-155.5 22.2,-108.2 -47.4,-214 -155.6,-236.3 l -9.8,-2 c -13.6,-2.8 -27.2,-4.1 -40.5,-4.1 z m -793.4,-163.2 c -93,0 -176.3,65.2 -195.7,159.8 -22.2,108.2 47.5,213.9 155.7,236.1 l 9.8,2 c 108.2,22.3 213.9,-47.5 236.1,-155.7 22.2,-108.2 -47.5,-213.9 -155.7,-236.1 l -9.8,-2 c -13.6,-2.8 -27.1,-4.1 -40.4,-4.1 z m -793.4,-163.2 c -92.9,0 -176.2,65.1 -195.7,159.7 -22.3,108.2 47.4,213.9 155.6,236.2 l 9.8,2 c 108.2,22.3 213.9,-47.4 236.2,-155.5 22.3,-108.2 -47.4,-214 -155.6,-236.3 l -9.8,-2 c -13.6,-2.8 -27.1,-4.1 -40.5,-4.1 z m -793.4,-163.2 c -92.9,0 -176.2,65.1 -195.7,159.7 -22.2,108.2 47.4,213.9 155.6,236.2 l 9.8,2 c 108.2,22.3 213.9,-47.4 236.2,-155.5 22.3,-108.2 -47.4,-214 -155.6,-236.3 l -9.8,-2 c -13.6,-2.8 -27.1,-4.1 -40.5,-4.1 z m -793.4,-163.2 c -93,0 -176.2,65.2 -195.7,159.8 -22.2,108.2 47.5,213.9 155.7,236.1 l 9.8,2 c 108.1,22.2 213.9,-47.4 236.1,-155.6 22.3,-108.2 -47.4,-214 -155.6,-236.2 l -9.8,-2 c -13.6,-2.8 -27.1,-4.1 -40.5,-4.1 z m -793.4,-163.2 c -92.9,0 -176.2,65.1 -195.7,159.8 -22.2,108.2 47.5,213.9 155.7,236.1 l 9.8,2 c 108.2,22.3 213.9,-47.4 236.1,-155.6 22.3,-108.2 -47.4,-214 -155.6,-236.2 l -9.8,-2 c -13.6,-2.8 -27.1,-4.1 -40.5,-4.1 z m -793.4,-163.2 c -92.9,0 -176.1,65 -195.6,159.6 -22.3,108.2 47.2,214 155.4,236.3 l 9.8,2 c 108.2,22.3 214,-47.3 236.3,-155.4 22.3,-108.2 -47.3,-214 -155.4,-236.3 l -9.8,-2.1 c -13.7,-2.8 -27.3,-4.1 -40.7,-4.1 z m -793.3,-163.2 c -92.9,0 -176.2,65 -195.7,159.6 -22.3,108.2 47.3,213.9 155.4,236.3 l 9.8,2 c 108.2,22.4 214,-47.3 236.3,-155.5 22.4,-108.1 -47.2,-213.9 -155.4,-236.2 l -9.8,-2.1 c -13.6,-2.8 -27.2,-4.1 -40.6,-4.1 z m -793.4,-163.2 c -93,0 -176.3,65.1 -195.7,159.8 -22.3,108.2 47.4,213.9 155.6,236.1 l 9.8,2 c 108.2,22.3 214,-47.4 236.2,-155.6 22.2,-108.2 -47.5,-214 -155.7,-236.2 l -9.8,-2 c -13.6,-2.8 -27.1,-4.1 -40.4,-4.1 z m -793.4,-163.2 c -93,0 -176.3,65.1 -195.7,159.8 -22.3,108.2 47.4,213.9 155.6,236.1 l 9.8,2 c 108.2,22.3 214,-47.4 236.2,-155.6 22.2,-108.2 -47.5,-214 -155.7,-236.2 l -9.8,-2 c -13.6,-2.8 -27.1,-4.1 -40.4,-4.1 z m -793.4,-163.2 c -93,0 -176.3,65.1 -195.7,159.8 -22.2,108.2 47.5,213.9 155.7,236.1 l 9.8,2 c 108.1,22.3 213.9,-47.4 236.1,-155.6 22.2,-108.2 -47.5,-214 -155.7,-236.2 l -9.8,-2 c -13.5,-2.8 -27.1,-4.1 -40.4,-4.1"
         style="fill:#ddb55e;fill-opacity:1;fill-rule:nonzero;stroke:none;stroke-width:0.99750002;stroke-dasharray:none"
         id="path80" />
      <path
         d="M 47829.2,3006.39 50953.8,7397.4 57265.2,4948.8 54140.7,557.699 Z M 44386.8,58723 l 6133.9,-2379.8 177.7,-68.9 -3125.2,-4391.9 -6311.7,2448.7 z M 52791.3,9979.6 54353.9,12175.5 60665.1,9727 57540,5335 51228.7,7783.6 Z M 17186,20498.3 l 2206.5,-856.1 1028.1,-398.9 c 1.2,-6.9 2.2,-13.8 3.4,-20.8 6.5,-39.7 13.4,-79.2 20.5,-118.5 0.5,-2.8 1,-5.6 1.5,-8.5 6.9,-37.4 14,-74.6 21.4,-111.6 0.9,-4.4 1.7,-8.9 2.6,-13.3 7.2,-35.9 14.7,-71.5 22.4,-106.9 1.2,-5.3 2.4,-10.7 3.5,-16 7.7,-34.8 15.6,-69.3 23.8,-103.7 1.3,-5.7 2.7,-11.4 4,-17 8.2,-34.1 16.6,-68 25.3,-101.6 1.4,-5.7 2.9,-11.3 4.4,-16.9 8.7,-33.7 17.7,-67.2 27,-100.5 1.4,-5.2 2.9,-10.3 4.3,-15.4 9.5,-33.8 19.2,-67.4 29.2,-100.7 1.3,-4.1 2.6,-8.3 3.8,-12.4 10.4,-34.2 20.9,-68.3 31.8,-102.1 0.8,-2.5 1.7,-5.1 2.5,-7.6 11.1,-34.3 22.5,-68.5 34.2,-102.3 0.4,-1.3 0.8,-2.6 1.3,-3.9 11.7,-33.9 23.7,-67.5 36,-100.9 1.3,-3.4 2.5,-6.8 3.7,-10.3 11.9,-32 24,-63.7 36.3,-95.3 1.9,-4.6 3.6,-9.3 5.5,-13.9 12.1,-30.7 24.5,-61.2 37.1,-91.5 2.1,-5.3 4.3,-10.6 6.5,-15.8 12.5,-29.8 25.3,-59.4 38.3,-88.9 2.4,-5.4 4.8,-10.9 7.2,-16.3 13.1,-29.3 26.3,-58.3 39.8,-87.1 2.5,-5.4 5.1,-10.7 7.6,-16.1 13.7,-28.9 27.6,-57.7 41.7,-86.2 2.4,-4.9 4.9,-9.7 7.3,-14.5 14.5,-29 29.2,-57.8 44.2,-86.4 2.1,-3.9 4.1,-7.8 6.2,-11.7 15.6,-29.4 31.3,-58.7 47.4,-87.7 1.4,-2.4 2.7,-4.8 4,-7.1 16.1,-28.9 32.4,-57.5 49,-85.9 1.3,-2.1 2.5,-4.3 3.8,-6.5 16.7,-28.5 33.8,-56.8 51.1,-84.9 2.2,-3.8 4.5,-7.5 6.8,-11.2 16.7,-27.1 33.8,-53.9 51,-80.6 3,-4.6 5.9,-9.1 8.9,-13.7 16.9,-26 34.2,-51.9 51.6,-77.5 3.4,-5 6.8,-10 10.2,-14.9 17.3,-25.3 34.9,-50.5 52.8,-75.4 3.6,-5.1 7.2,-10.1 10.8,-15.1 18,-24.9 36.1,-49.6 54.5,-74.1 3.6,-4.8 7.3,-9.6 10.9,-14.4 18.7,-24.7 37.6,-49.2 56.8,-73.4 3.3,-4.3 6.8,-8.6 10.2,-12.8 19.6,-24.8 39.5,-49.4 59.7,-73.8 2.8,-3.3 5.6,-6.6 8.4,-10 21,-25.2 42.2,-50.2 63.7,-75 1.7,-1.9 3.4,-3.8 5,-5.7 21.2,-24.3 42.7,-48.4 64.4,-72.3 2.2,-2.4 4.3,-4.8 6.5,-7.2 21.9,-24 44.1,-47.7 66.5,-71.3 3.3,-3.5 6.6,-7 10,-10.5 21.8,-22.8 43.9,-45.3 66.2,-67.8 4.1,-4.1 8.1,-8.2 12.2,-12.3 22,-21.9 44.3,-43.7 66.8,-65.3 4.5,-4.3 9,-8.7 13.5,-13 22.5,-21.4 45.2,-42.6 68.1,-63.6 l 14.1,-12.9 c 23,-21 46.4,-41.9 70,-62.6 1.9,-1.7 3.7,-3.4 5.7,-5.1 l -1712.6,-2406.6 -6311.6,2448.7 z m 67278.1,22675.9 -3125.1,-4391.9 -6309.7,2448 3125.3,4391.8 z m -9621.4,-7968.8 -3213.4,1246.8 v 0 h -0.1 l 1562.6,2195.9 1562.6,2195.9 748.5,-290.4 5561.3,-2157.6 -3125.1,-4391.9 z m -6613.6,-3531.3 1562.7,2195.9 1562.6,2195.9 3191.1,-1238 3118.8,-1210 -3125,-4392 z m 1699.6,-6756.6 c 356.2,715.1 495.3,1414.8 413.6,2083.5 -107.4,878.8 -606.4,1709.6 -1483.1,2469.4 -401.2,347.7 -905.9,653.2 -1536.7,929.6 l 631.7,887.8 6310.3,-2448.1 -3125.1,-4391.9 z m -4771.5,-4246 c 203.3,96.9 405.6,201 610.3,314 1323.1,730.3 3025,2028.1 3936.7,3526.2 l 1160.4,-450.2 -3125,-4391.9 z m -7128.3,-3331.7 1665,2339.9 c 1794.3,-40 3252.6,75.8 4868.3,729.8 l 2902.6,-1126.1 -3125.1,-4392 z m -1848.5,-2597.4 1573.6,2211.2 6310.9,-2448.5 -3125,-4391.9 -6311.2,2448.6 z m -9965.6,-1893.8 1385.6,1947.1 3155.8,-1224.4 L 53912,12347 50786.7,7955.1 44475.1,10403.8 Z m -10320.3,-2392 1552.2,2181.2 3155.8,-1224.4 3155.7,-1224.3 v 0 0 L 40633.5,5798 34322,8246.7 Z m -13449.6,5321 c 603.6,-442.4 1250,-734.9 1827,-996 183.3,-82.9 356.4,-161.3 519.6,-240.5 1196.2,-580.7 2569.5,-983.4 3993,-1172.8 l -1658,-2329.9 -6311.6,2448.7 941.4,1322.9 z m 36189.7,3206.2 -1047.8,-1472.5 -3200.5,1241.7 -1973.9,765.9 c 1380.5,206.3 2542.2,308.1 3389.8,295.9 843.1,-12 1601.7,-45.3 2335.2,-77.5 346.5,-15.2 679.7,-29.9 1004,-41.4 z M 47875.2,15181.9 v 0 0 l 979.6,1376.7 1909.6,2683.4 c 248.6,46 499.8,90.6 748.6,132.9 l 198.3,-76.9 5600.7,-2172.9 v 0 0 0 l -3125.2,-4391.9 -3236.3,1255.6 z m -5239.3,2032.7 c 2409.1,751.4 5071.7,1429.2 7475.8,1902.7 l -2678.4,-3763.9 -3792.6,1471.4 z m -4452.7,-2749.3 -903.6,-1269.8 -2304.6,894 c 304.6,128.1 599.3,270 880.8,424.1 934.1,511.6 2099.8,1035.4 3472.3,1560.7 z m 5849.9,-3890 -4170.3,1618 -2141.3,830.7 2374.3,3336.4 c 585.9,212.9 1205,425.3 1842.1,632.1 l 529.9,-205.6 4690.5,-1819.7 -1562.6,-2196 z m 21534.2,30533.2 c -264.6,105.6 -530.3,168 -811.6,234 -426.4,100.1 -909.8,213.6 -1538.8,511.8 -177.3,84.1 -226.6,181.6 -248.1,247.6 -117.8,360.2 247.2,1034.1 633.4,1747.5 193.3,357 392.2,724.4 562.1,1103.3 l 3394.6,-1317 -1843.2,-2590.2 c -49.2,22.1 -98.8,43.1 -148.4,63 z m 2219.8,-9262.9 -3961.9,1537.1 c 85.1,213.9 203.2,400.5 352.5,556.6 v 0 c 485.9,508.1 882.7,907.9 1232.9,1260.7 1080,1087.8 1536,1547.2 1853.2,2453 l 3648.6,-1415.6 -1550.6,-2179 z m -4083.2,1091.3 3808.3,-1477.6 v 0 h 0.1 l -626.3,-880.1 c -459.8,178.3 -937.4,336.7 -1364.1,478.2 -518.2,171.9 -965.8,320.3 -1267,462.5 v 0 c -431.4,203.7 -648.2,787.3 -551,1417 z m 10608.6,8078.6 -1570.2,-2206.7 -1555,-2185.2 -3790.8,1470.7 c 251.5,1082.1 -224.7,2102.3 -1270,2735.8 l 1081.3,1519.5 793.1,1114.6 3919.7,-1520.8 z M 20877.4,19297.3 c -7.9,47.5 -14.5,94.7 -20.7,141.8 l -0.5,3.8 c -144.3,1106.4 119.4,2287.1 783.6,3509.3 317.4,583.8 710.6,1084.1 1237.3,1574.3 l 4.6,4.2 c 482.3,448.3 1080.6,885 1778.3,1297.9 1436.3,850.2 2729.9,1646.4 3950.8,2431.7 l 0.1,-0.1 98.4,63.5 378.8,244.3 -1.2,0.4 c 1382.6,900.3 2631.1,1763.2 3730.5,2577.9 l -51.1,-71.9 1246.9,985.5 c 5.2,4.1 10.5,8.2 15.7,12.3 l 25.7,20.4 0.2,0.2 c 43.1,34.2 86.1,68.3 128.8,102.5 h 0.2 l 103.5,83.1 c 5.4,4.3 10.7,8.6 16.1,12.9 l 294,236.4 -2.2,0.8 c 1124.2,922.8 2024.6,1774.1 2679.3,2533.5 v 0 c 450.1,522.1 919.5,1056.8 1435,1634.7 l 7.6,8.6 c 700.1,784.6 1372.6,1522.6 2023.1,2236.4 681.3,747.6 1326.7,1455.9 1942.7,2150.7 l 0.1,-0.1 106,120 c 2.1,2.3 4.1,4.6 6.2,7 l 212.2,240.1 -0.7,0.2 c 836.9,954.5 1503.3,1760 2083,2517.5 483.4,631.8 1034,1230.9 1636.1,1780.8 l 1.7,1.6 c 1681.6,1535.3 3816.3,2730 6345,3551 l 1.2,0.4 c 90.5,29.3 180.1,58 272.2,86.7 7,2.3 713,233.9 1818.9,376.8 l 11.8,1.5 c 1893.6,243.1 4718.5,208.8 7464.9,-1320.8 l 27.2,-15.2 c 0.7,-0.4 1.5,-0.8 2.2,-1.2 l 75.3,-42.3 c 1049.7,-601.6 1201.7,-998.1 1275.3,-1189.9 190.6,-496.8 129.4,-1091.4 -192.6,-1871.2 l -0.2,-0.6 c -177.7,-430.2 -407.9,-855.4 -630.5,-1266.5 -453.6,-837.6 -845.3,-1561.1 -666.2,-2109 74.1,-226.7 238.3,-401.7 487.9,-520.1 673.3,-319.2 1182,-438.6 1630.8,-543.9 275.6,-64.7 513.6,-120.6 746.2,-213.4 97.3,-38.9 194.5,-83.2 288.9,-131.7 l 2.5,-1.3 c 1060,-544.5 1519.8,-1466.7 1230.2,-2467.3 l -1,-3.3 -17.2,-56.9 c -289,-959.8 -673.7,-1347.3 -1815.7,-2497.6 -334.2,-336.6 -750.2,-755.6 -1239,-1266.8 -191.4,-200.2 -341.6,-437.7 -448.6,-708.1 l -11.8,4.6 -68.9,-242.6 c -0.1,-0.2 -0.1,-0.4 -0.2,-0.6 l -57.1,-200.7 8.1,-3.1 c -173.4,-874.3 142.2,-1695.4 791.6,-2002 v 0 c 326.5,-154.1 786.3,-306.6 1318.5,-483.1 472.9,-156.8 1008.8,-334.6 1505.7,-535 l 6,-2.4 c 706.9,-285.7 1253.1,-600 1669.3,-960.8 788,-682.9 1234.9,-1415.6 1328,-2177.9 78.4,-641.7 -83.5,-1326.5 -481.4,-2035.3 l -0.4,-0.7 c -834.8,-1486.5 -2540.7,-2793.7 -3858.9,-3521.4 -359.2,-198.3 -710.5,-368 -1073.8,-518.8 -1611.4,-669 -3065,-774.1 -4888.3,-727 -455,11.7 -926.6,32.4 -1425.9,54.3 -736.9,32.4 -1498.8,65.8 -2348.6,78 -1030.8,14.7 -2497.7,-132.3 -4247.5,-425.3 l -0.2,0.1 -62.3,-10.5 -352.5,-59.5 1.6,2.1 -104.6,-19.5 -367.4,-62 11.5,-4.5 -98.7,-18.4 -91.1,-17 -0.1,-0.1 C 47776.3,19147 44672.6,18355.3 41952,17479.9 l -0.1,0.1 -77.7,-25.1 -615.4,-198.9 5,-1.9 c -237.8,-79.7 -472.5,-159.9 -703.2,-240.5 l 5.3,7.5 -694.6,-253.4 -67.2,-24.5 -0.1,-0.2 c -1671.7,-612.5 -3074.1,-1226.8 -4169,-1826.3 -429.1,-235.1 -891.1,-440.3 -1372.9,-609.9 -1513.4,-532.7 -3256.8,-715.2 -5041.8,-527.6 -1508.9,158.5 -2971,565 -4228.2,1175.3 v 0 c -168.7,81.9 -344.5,161.5 -530.7,245.7 -614.3,278 -1310.4,593 -1921.8,1083.8 -819.7,658 -1343.1,1529.1 -1593.3,2655.5 -25.9,116.5 -48.8,235.7 -68.9,357.8 z m -3414.5,1590.1 3123.2,4389 1718.1,-666.6 c -437.2,-446.1 -780.9,-909.9 -1068.1,-1438.1 v -0.1 c -638.3,-1174.4 -930.3,-2320.9 -870.2,-3414.2 l -2905,1127.1 z m 6523.4,9167.1 4094,-1588.4 c -1133.2,-723.9 -2333,-1460 -3654.4,-2242 -677.8,-401.3 -1267.7,-826 -1755.1,-1263.7 l -1809.8,702.2 2451.1,3444.5 z m 6800.2,9556.1 6311.5,-2448.7 -3125.3,-4391.8 v 0 0 l -6311.5,2448.7 2553.6,3588.5 z M 47298.1,51495.9 45568.9,49066 44173,47104.3 37861.5,49553 l 2553.5,3588.5 571.4,802.8 z m -776.2,-5302.8 -1010.4,391.9 -896.5,347.9 1732,2433.9 1393.1,1957.7 4591.1,-1781 c -2280.7,-813.1 -4232,-1938.2 -5809.3,-3350.4 z m -5307,-4038.3 1570.2,2206.7 1555,2185.1 1807.2,-701.1 c -518,-497.8 -995.4,-1031.1 -1422.5,-1589.1 -598.6,-782.2 -1291.9,-1617.7 -2174.2,-2619.8 z m -2742.2,-5033.4 -171.8,66.7 -486,188.6 v 0 0 l 1390,1953.5 1735.2,2438.3 535.1,-207.6 750.6,-291.2 C 41646,40617.9 41039,39951.8 40400.6,39251.2 39779.8,38570 39139,37866.8 38472.7,37121.4 Z m -932.7,-131 606.4,-235.2 c -432,-486.4 -833.1,-944.4 -1219.9,-1393.2 -477.3,-553.7 -1091.3,-1159.5 -1832.8,-1809.2 z m 2958.1,4949.6 -1712.1,-2406.1 -1413.1,-1985.7 -6311.6,2448.7 3125.2,4391.8 3045.2,-1181.4 z m 3400,4778.1 v 0 0 l -1551.6,-2180.6 -1573.6,-2211.2 -3155.8,1224.3 -3155.7,1224.3 3125.2,4391.9 z m -18107.2,-16870.9 -1529.8,593.5 3125.2,4391.8 6300.9,-2444.5 c -1405.8,-1107.5 -3130.3,-2322.9 -5128.5,-3614.6 z m 8089.1,-21429 -6311.6,2448.7 1737.7,2441.9 c 1774.3,-168.8 3507.9,16.1 5027.9,536.6 L 37004.7,12809.2 35283,10389.7 Z m 16631.8,-849.31 -3124.6,-4391 -6311.7,2448.7 1721.7,2419.51 1403,1971.5 3155.8,-1224.4 z m 23914.5,39499.71 3286.3,-1275 -3125.3,-4391.9 -2165.4,840.1 -4146.2,1608.6 3125.3,4391.9 z m -6508.9,2525.2 3041.6,-1180 -3125.2,-4391.9 -2239.8,869 -1255.1,486.9 c 292.6,792.7 327.5,1430.6 111.6,1993.2 -134.2,350.1 -400.5,780.7 -1333.5,1340.7 l 1530.5,2150.7 z m -4300.4,1668.5 588.5,-228.4 -1490.9,-2095 c -2027.4,1089.9 -4082.6,1408.8 -5794.4,1408.8 -460.7,0 -896.6,-23.1 -1300.2,-60.6 l 2274,3195.5 z m -7487.6,2904.9 1322.6,-513.1 -2445.9,-3437.3 c -1095.4,-149.4 -1775.8,-373.4 -1801,-381.8 -64.3,-20 -129.4,-40.7 -195.2,-61.9 l -3684.9,1429.6 -1309.8,508.2 3125.2,4391.9 z m 28881.9,-11016.3 175,244.7 -40778,15811.9 -10.2,3.9 -16,6.3 v 0 0 l -166.6,64.6 -3400.4,-4778.4 h -0.1 l -3503.4,-4923.4 -0.7,-1 -3296.1,-4631.8 v 0 l -3400,-4778 v 0 l -3503.5,-4923.4 -0.7,-1.1 -3296,-4631.7 v 0 l -3503.5,-4923.4 -0.7,-1.1 -3399.4,-4777 -1.7,-2.4 -3397.8,-4774.9 -166.1,-241 v 0 l -0.8,-1.2 269.4,-104.5 172,-67.7 0.5,0.7 6311.6,-2448.7 h -0.1 l 7195.6,-2791.6 v 0 l 6753.5,-2620.2 v 0 l 6311.6,-2448.7 v 0 l 7195.6,-2791.6 v 0 L 54307.9,0 71306.5,23890.1 v 0 l 3399.9,4778.1 v 0 l 3399.8,4778.2 v 0 l 3399.9,4778.2 v 0 l 3505.2,4926.3"
         style="fill:#dbd7d7;fill-opacity:1;fill-rule:nonzero;stroke:none"
         id="path82"
         sodipodi:nodetypes="cccccccccccccccccccccscccccccccccccsccccccccccccccsccccccccccscccsccccccccccccccccccccccccccccccccccccccccccccccsccccccccccccccccccccccccccccccccccccccccccccccccccccscccccccccccccccccccccccccccccccccccccccccccccccsscccccccccccsscccccccccccsscccccccccccccccccccccssccsccccccccccccccccccccccsccccccccccccccccsscccccsssccccccccccccccccccccccccccccsscccccccccccccccccccccccccccccccccccccccccccccccccccccccccccccccccccccccccccccccccccccccccccccccccccccccccccccccccccccccsccccccccccccccccccccccccccccccccccccccccccccccccccccccccccccccc" />
    </g>
  </g>
</svg>
