<?xml version="1.0" encoding="UTF-8" standalone="no"?>
<!-- Created with Inkscape (http://www.inkscape.org/) -->

<svg
   version="1.1"
   id="svg2"
   width="2512.72"
   height="3106.0798"
   viewBox="0 0 2512.72 3106.0798"
   sodipodi:docname="data-choreographies-choreo-bg.svg"
   inkscape:version="1.2.2 (732a01da63, 2022-12-09)"
   xmlns:inkscape="http://www.inkscape.org/namespaces/inkscape"
   xmlns:sodipodi="http://sodipodi.sourceforge.net/DTD/sodipodi-0.dtd"
   xmlns="http://www.w3.org/2000/svg"
   xmlns:svg="http://www.w3.org/2000/svg">
  <defs
     id="defs6" />
  <sodipodi:namedview
     id="namedview4"
     pagecolor="#ffffff"
     bordercolor="#000000"
     borderopacity="0.25"
     inkscape:showpageshadow="2"
     inkscape:pageopacity="0.0"
     inkscape:pagecheckerboard="0"
     inkscape:deskcolor="#d1d1d1"
     showgrid="false"
     inkscape:zoom="0.14619904"
     inkscape:cx="-3659.3948"
     inkscape:cy="2264.0368"
     inkscape:window-width="3440"
     inkscape:window-height="1334"
     inkscape:window-x="-11"
     inkscape:window-y="-11"
     inkscape:window-maximized="1"
     inkscape:current-layer="g12">
    <inkscape:page
       x="0"
       y="0"
       id="page8"
       width="2512.72"
       height="3106.0798" />
  </sodipodi:namedview>
  <g
     id="g10"
     inkscape:groupmode="layer"
     inkscape:label="Page 1"
     transform="matrix(1.3333333,0,0,-1.3333333,-12491.28,8487.0398)">
    <g
       id="g12"
       transform="scale(0.1)">
      <path
         d="m 96718.9,59151.6 c 5.1,-98.1 9.7,-197.9 14,-299.5 4.2,-101.4 8,-203 11.4,-304.5 1.7,-77.8 3.8,-156 6.3,-234.6 2.5,-78.7 4.7,-67.3 6.4,-146.8 h 236.7 c -3.4,93.1 -6.4,94.7 -8.9,186.1 -2.6,91.3 -5.5,182.6 -8.9,274 -3.4,91.3 -6.7,182.7 -10.1,274.1 -3.4,91.3 -7.7,183.5 -12.7,276.6 -5.1,140.4 -34.7,262.2 -88.8,365.4 -54.1,103.1 -127.3,181.4 -219.5,234.7 -69.4,40.1 -147.1,65.1 -233.3,75 234.8,41 413.4,245.4 413.4,491.9 0,276.1 -223.8,499.9 -499.9,499.9 -276.1,0 -499.9,-223.8 -499.9,-499.9 0,-246.8 179.1,-451.3 414.2,-492 -145.6,-16 -266.2,-74 -360.9,-175.1 -112.5,-120.2 -173.8,-286.8 -184,-499.9 -5,-93.1 -8.4,-185.3 -10.1,-276.6 -1.7,-91.4 -5.1,-182.8 -10.1,-274.1 -3.4,-91.4 -6.4,-182.7 -8.9,-274 -2.6,-91.4 -5.5,-93 -8.9,-186.1 h 240.4 c 1.6,79.5 3.7,68.1 6.3,146.8 2.5,78.6 5.5,156.8 8.9,234.6 3.4,101.5 6.8,203.1 10.1,304.5 3.4,101.6 7.6,201.4 12.7,299.5 5.1,101.5 25,189.9 59.6,265.1 34.7,75.3 83.9,113.8 146.5,154.4 62.6,40.5 105.1,54.1 182.9,54.1 81.2,0 129.2,-13.6 190.1,-54.1 60.9,-40.6 109,-79.1 145.3,-154.4 36.5,-75.2 56.3,-163.6 59.7,-265.1"
         style="fill:#dbd7d7;fill-opacity:1;fill-rule:nonzero;stroke:none"
         id="path84" />
      <path
         d="m 109109,59763.4 c 355,-367.2 774,-794.1 794,-813.5 19,-19.4 37,-36.7 55,-52.2 13,-12.1 26,-21.4 37,-29 7,-2.6 9,2.1 9,2.1 1,-0.4 109,102.9 109,102.9 249,237.6 545,524.8 558,538.4 14,13.7 27,27.6 39,41.7 12,14.1 18,26.7 28,42.2 0,113.3 1,288.9 -2,420.8 l -95,-98.1 c -200,-187.9 -546,-501.4 -559,-514.1 -13,-12.6 -58,-61.9 -71,-76.5 l -5,-1.1 c -9,-0.4 -147,128.2 -147,128.2 -284,295.5 -775,771.1 -793,789.1 -18,18 -36,35.1 -54,51.1 -18,16.1 -35,29.5 -52,40.4 -2,-79.9 0,-273.3 4,-410.4 l 145,-162"
         style="fill:#dbd7d7;fill-opacity:1;fill-rule:nonzero;stroke:none"
         id="path86" />
      <path
         d="m 109109,59124.3 c 355,-367.1 774,-794.1 794,-813.5 19,-19.3 37,-36.7 55,-52.1 13,-12.2 26,-21.4 37,-29 7,-2.6 9,2 9,2 1,-0.3 109,102.9 109,102.9 249,237.7 545,524.8 558,538.5 14,13.6 27,27.6 39,41.7 12,14.1 18,26.1 28,41.6 -5,123.1 1,289.5 -2,421.4 l -95,-98.1 c -200,-188 -546,-501.5 -559,-514.1 -13,-12.7 -58,-62 -71,-76.6 l -5,-1 c -9,-0.5 -147,128.1 -147,128.1 -284,295.5 -775,771.2 -793,789.1 -18,18 -36,35.1 -54,51.1 -18,16.1 -35,29.6 -52,40.4 -2,-79.9 0,-273.2 4,-410.3 l 145,-162.1"
         style="fill:#dbd7d7;fill-opacity:1;fill-rule:nonzero;stroke:none"
         id="path88" />
      <path
         d="m 109109,58485.3 c 355,-367.1 774,-794.1 794,-813.5 19,-19.4 37,-36.7 55,-52.1 13,-12.2 26,-21.5 37,-29.1 7,-2.6 9,2.1 9,2.1 1,-0.4 109,102.9 109,102.9 249,237.6 545,524.8 558,538.4 14,13.7 27,27.6 39,41.7 12,14.1 23,29 33,44.5 -5,115 -4,286.6 -7,418.5 l -95,-98.1 c -200,-187.9 -546,-501.4 -559,-514.1 -13,-12.6 -58,-61.9 -71,-76.5 l -5,-1.1 c -9,-0.4 -147,128.2 -147,128.2 -284,295.5 -775,771.1 -793,789.1 -18,18 -36,35.1 -54,51.1 -18,16.1 -35,29.5 -52,40.4 -2,-79.9 0,-273.3 4,-410.4 l 145,-162"
         style="fill:#dbd7d7;fill-opacity:1;fill-rule:nonzero;stroke:none"
         id="path90" />
      <path
         d="m 109410,60950.3 c 104,73.4 300,233.9 340,259.5 5,1.4 16,0 20,-2 4,-2 504,-449.9 722,-676.2 -143,-127 -464,-401.6 -464,-401.6 0,0 -26,-22.8 -48,-43.9 -22,11.5 -219,201.6 -341,317.8 -122,116.2 -398,392 -396,405.5 9,16.2 64,67.5 167,140.9 z m -300,-580.3 c 354,-367.1 773,-769.7 793,-789.1 19,-19.4 38,-36.7 55,-52.1 14,-12.2 26,-24.4 36,-25.7 11,0 119,101.6 119,101.6 250,237.6 545,500.4 558,514.1 14,13.6 27,27.6 39,41.7 12,14.1 18,26.8 28,42.4 -1,106 0,196.4 1,326.4 -159,160.1 -700,682.6 -800,755 -99,72.5 -181,135.9 -181,135.9 0,0 -10,-0.7 -72,-45.3 -73,-45.3 -726,-554.2 -726,-554.2 3,-173.5 5,-146.1 5,-286.8 l 145,-163.9"
         style="fill:#dbd7d7;fill-opacity:1;fill-rule:nonzero;stroke:none"
         id="path92" />
      <path
         d="m 102201,60197.7 c 0,25.9 1,51.7 3,77.5 2,25.9 6,50.7 12,74.5 209,14 412,24.4 609,31.3 42,1.5 83,2.2 124,3.4 26,4 203,6.1 267,5.4 63,0.7 266,-1.7 304,-6.5 29,-0.8 57,-1.2 86,-2.3 197,-6.9 400,-17.3 610,-31.3 6,-23.8 9,-48.6 11,-74.5 2,-25.8 3,-51.6 3,-77.5 0,-18.2 0,-769.3 0,-787.5 0,-25.9 -1,-51.7 -3,-77.5 -2,-25.9 -5,-50.7 -11,-74.5 -210,-14 -413,-24.4 -610,-31.3 -41,-1.5 -82,-2.2 -123,-3.4 -26,-4 -204,-6.1 -267,-5.4 -64,-0.7 -266,1.7 -304,6.4 -29,0.9 -58,1.3 -87,2.4 -197,6.9 -400,17.3 -609,31.3 -6,23.8 -10,48.6 -12,74.5 -2,25.8 -3,51.6 -3,77.5 0,18.2 0,769.3 0,787.5 z m -203,-1162.3 c 255,-16.8 502,-29.3 742,-37.6 7,-0.2 13,-0.3 20,-0.5 -4,-107.7 -16,-277.9 -59,-324.2 -111,-119.3 -291,-202.7 -346,-237.6 l -4,-46.2 h 1192 l 36,13.2 c 0,0 201,122.1 206,260.7 3,81.1 0,239.2 -3,338.1 212,8.2 428,19.4 651,34.1 8,28.6 12,58.4 15,89.4 2,30.9 3,61.9 3,92.9 0,22 0,1150.5 0,1172.5 0,31 -1,62 -3,92.9 -3,31 -7,60.8 -15,89.4 -255,16.8 -502,29.3 -742,37.6 -35,1.2 -70,1.7 -105,2.8 -46,5.6 -293,8.5 -370,7.6 -77,0.9 -294,-1.5 -325,-6.4 -50,-1.4 -100,-2.2 -151,-4 -240,-8.3 -487,-20.8 -742,-37.6 -7,-28.6 -12,-58.4 -14,-89.4 -3,-30.9 -4,-61.9 -4,-92.9 0,-22 0,-1150.5 0,-1172.5 0,-31 1,-62 4,-92.9 2,-31 7,-60.8 14,-89.4"
         style="fill:#dbd7d7;fill-opacity:1;fill-rule:nonzero;stroke:none"
         id="path94" />
      <path
         d="m 97784.1,45040.1 -976.2,-411.8 976.3,-411.9 -175,411.8 174.9,411.9"
         style="fill:#dbd7d7;fill-opacity:1;fill-rule:nonzero;stroke:none"
         id="path96" />
      <path
         d="m 110262,44768.9 c -47,0 -80,-6.2 -123,-21.3 l 15,175.2 h 387 v 183 h -574 l -26,-473.4 97,-62.6 c 63,35.9 95,47.6 158,47.6 98,0 170,-50.8 170,-144.5 0,-96.2 -74,-146.9 -181,-146.9 -88,0 -159,42.1 -221,93.9 l -98,-137.6 c 78,-73.5 188,-131.6 350,-131.6 193,0 368,119.4 368,327.3 0,199.4 -150,290.9 -322,290.9"
         style="fill:#dbd7d7;fill-opacity:1;fill-rule:nonzero;stroke:none"
         id="path98" />
      <path
         d="m 104384,44825.1 c -109,0 -197,-88.2 -197,-196.8 0,-108.8 88,-196.8 197,-196.8 108,0 196,88 196,196.8 0,108.6 -88,196.8 -196,196.8"
         style="fill:#dbd7d7;fill-opacity:1;fill-rule:nonzero;stroke:none"
         id="path100" />
      <path
         d="m 106450,44825.1 c -109,0 -197,-88.2 -197,-196.8 0,-108.8 88,-196.8 197,-196.8 109,0 197,88 197,196.8 0,108.6 -88,196.8 -197,196.8"
         style="fill:#dbd7d7;fill-opacity:1;fill-rule:nonzero;stroke:none"
         id="path102" />
      <path
         d="m 98184.6,44825.1 c -108.7,0 -196.8,-88.2 -196.8,-196.8 0,-108.8 88.1,-196.8 196.8,-196.8 108.6,0 196.7,88 196.7,196.8 0,108.6 -88.1,196.8 -196.7,196.8"
         style="fill:#dbd7d7;fill-opacity:1;fill-rule:nonzero;stroke:none"
         id="path104" />
      <path
         d="m 103695,44825.1 c -109,0 -197,-88.2 -197,-196.8 0,-108.8 88,-196.8 197,-196.8 108,0 197,88 197,196.8 0,108.6 -89,196.8 -197,196.8"
         style="fill:#dbd7d7;fill-opacity:1;fill-rule:nonzero;stroke:none"
         id="path106" />
      <path
         d="m 105072,44825.1 c -108,0 -196,-88.2 -196,-196.8 0,-108.8 88,-196.8 196,-196.8 109,0 197,88 197,196.8 0,108.6 -88,196.8 -197,196.8"
         style="fill:#dbd7d7;fill-opacity:1;fill-rule:nonzero;stroke:none"
         id="path108" />
      <path
         d="m 105761,44825.1 c -109,0 -197,-88.2 -197,-196.8 0,-108.8 88,-196.8 197,-196.8 109,0 197,88 197,196.8 0,108.6 -88,196.8 -197,196.8"
         style="fill:#dbd7d7;fill-opacity:1;fill-rule:nonzero;stroke:none"
         id="path110" />
      <path
         d="m 100940,44825.1 c -109,0 -197,-88.2 -197,-196.8 0,-108.8 88,-196.8 197,-196.8 108,0 196,88 196,196.8 0,108.6 -88,196.8 -196,196.8"
         style="fill:#dbd7d7;fill-opacity:1;fill-rule:nonzero;stroke:none"
         id="path112" />
      <path
         d="m 100251,44825.1 c -109,0 -197,-88.2 -197,-196.8 0,-108.8 88,-196.8 197,-196.8 109,0 197,88 197,196.8 0,108.6 -88,196.8 -197,196.8"
         style="fill:#dbd7d7;fill-opacity:1;fill-rule:nonzero;stroke:none"
         id="path114" />
      <path
         d="m 99562.1,44825.1 c -108.7,0 -196.8,-88.2 -196.8,-196.8 0,-108.8 88.1,-196.8 196.8,-196.8 108.7,0 196.8,88 196.8,196.8 0,108.6 -88.1,196.8 -196.8,196.8"
         style="fill:#dbd7d7;fill-opacity:1;fill-rule:nonzero;stroke:none"
         id="path116" />
      <path
         d="m 98873.3,44825.1 c -108.6,0 -196.8,-88.2 -196.8,-196.8 0,-108.8 88.2,-196.8 196.8,-196.8 108.7,0 196.8,88 196.8,196.8 0,108.6 -88.1,196.8 -196.8,196.8"
         style="fill:#dbd7d7;fill-opacity:1;fill-rule:nonzero;stroke:none"
         id="path118" />
      <path
         d="m 102317,44825.1 c -108,0 -197,-88.2 -197,-196.8 0,-108.8 89,-196.8 197,-196.8 109,0 197,88 197,196.8 0,108.6 -88,196.8 -197,196.8"
         style="fill:#dbd7d7;fill-opacity:1;fill-rule:nonzero;stroke:none"
         id="path120" />
      <path
         d="m 107139,44825.1 c -109,0 -197,-88.2 -197,-196.8 0,-108.8 88,-196.8 197,-196.8 108,0 197,88 197,196.8 0,108.6 -89,196.8 -197,196.8"
         style="fill:#dbd7d7;fill-opacity:1;fill-rule:nonzero;stroke:none"
         id="path122" />
      <path
         d="m 103006,44825.1 c -109,0 -197,-88.2 -197,-196.8 0,-108.8 88,-196.8 197,-196.8 109,0 197,88 197,196.8 0,108.6 -88,196.8 -197,196.8"
         style="fill:#dbd7d7;fill-opacity:1;fill-rule:nonzero;stroke:none"
         id="path124" />
      <path
         d="m 109205,44825.1 c -109,0 -197,-88.2 -197,-196.8 0,-108.8 88,-196.8 197,-196.8 109,0 197,88 197,196.8 0,108.6 -88,196.8 -197,196.8"
         style="fill:#dbd7d7;fill-opacity:1;fill-rule:nonzero;stroke:none"
         id="path126" />
      <path
         d="m 107828,44825.1 c -109,0 -197,-88.2 -197,-196.8 0,-108.8 88,-196.8 197,-196.8 108,0 196,88 196,196.8 0,108.6 -88,196.8 -196,196.8"
         style="fill:#dbd7d7;fill-opacity:1;fill-rule:nonzero;stroke:none"
         id="path128" />
      <path
         d="m 101628,44825.1 c -108,0 -196,-88.2 -196,-196.8 0,-108.8 88,-196.8 196,-196.8 109,0 197,88 197,196.8 0,108.6 -88,196.8 -197,196.8"
         style="fill:#dbd7d7;fill-opacity:1;fill-rule:nonzero;stroke:none"
         id="path130" />
      <path
         d="m 108516,44825.1 c -108,0 -196,-88.2 -196,-196.8 0,-108.8 88,-196.8 196,-196.8 109,0 197,88 197,196.8 0,108.6 -88,196.8 -197,196.8"
         style="fill:#dbd7d7;fill-opacity:1;fill-rule:nonzero;stroke:none"
         id="path132" />
      <path
         d="m 95998.3,44344.3 -284,283.9 284,284 284,-284 z m -562.3,283.9 562.3,-562.3 562.3,562.3 -562.3,562.3 -562.3,-562.3"
         style="fill:#dbd7d7;fill-opacity:1;fill-rule:nonzero;stroke:none"
         id="path134" />
      <path
         d="m 95678,54762.8 v -175.3 h 682.7 v 175.3 h -213 v 762.1 H 95988 c -72.3,-43.1 -138.8,-66.3 -265.5,-85.3 v -135.1 h 207.9 v -541.7 H 95678"
         style="fill:#dbd7d7;fill-opacity:1;fill-rule:nonzero;stroke:none"
         id="path136" />
      <path
         d="m 102410,55340.2 284,-284 -284,-284 -284,284 z m 562,-284 -562,562.3 -562,-562.3 562,-562.3 562,562.3"
         style="fill:#dbd7d7;fill-opacity:1;fill-rule:nonzero;stroke:none"
         id="path138" />
      <path
         d="m 100215,55171.2 c 84,-0.1 140,-78.2 248,-188 76,-78.1 142,-115.9 206,-130.1 l -90,-212.4 976,411.8 -976,411.8 126,-296.8 c 0,0.3 -1,0.4 -1,0.7 -127,112.1 -260,297.8 -488,298.2 -218,0.4 -354.2,-158.6 -467.8,-291.3 -100,-116.9 -167,-187.8 -254.2,-187.6 -85.5,0.1 -149.6,71.5 -247.7,188.6 -109.1,130.4 -245.1,292.6 -472.4,293 -227.2,0.4 -364.1,-161.6 -474.1,-291.9 -98.1,-116.1 -162.5,-187.2 -248,-187.1 -85.3,0.2 -149.4,71.5 -248.6,190 -108.7,129.7 -244,291.2 -471.4,291.6 -218.1,0.5 -354.3,-158.6 -467.9,-291.3 -100,-116.9 -167,-187.7 -254.3,-187.6 l -0.6,-295.2 c 229.9,-0.4 374.1,168 483.5,295.7 97.7,114.2 162.5,183.4 238.6,183.2 83.8,-0.1 148.6,-70.2 247.2,-188 109.5,-130.6 245.6,-293.1 472.9,-293.6 227.4,-0.3 364.3,161.7 474.3,292 98.1,116 162.5,187.1 247.8,187 85.3,-0.2 149.3,-71.3 246.9,-188 109.5,-130.6 245.7,-293.2 473.1,-293.6 230,-0.4 374.1,167.9 483.6,295.7 98.1,114.1 162.1,183.4 238.1,183.2"
         style="fill:#dbd7d7;fill-opacity:1;fill-rule:nonzero;stroke:none"
         id="path140" />
      <path
         d="m 97784.1,51992 -976.2,-411.7 976.3,-411.9 -175,411.8 174.9,411.8"
         style="fill:#dbd7d7;fill-opacity:1;fill-rule:nonzero;stroke:none"
         id="path142" />
      <path
         d="m 102069,51227.2 v -124.5 h 704 v 182.5 h -222 c -49,0 -117,-5.1 -170,-10.6 182,158.2 344,326.5 344,484.4 0,180.6 -134,298.8 -332,298.8 -143,0 -237,-50.1 -335,-148.5 l 117,-117.3 c 53,49.2 114,95.1 189,95.1 98,0 154,-49.7 154,-140.4 0,-135.2 -180,-294.1 -449,-519.5"
         style="fill:#dbd7d7;fill-opacity:1;fill-rule:nonzero;stroke:none"
         id="path144" />
      <path
         d="m 95998.8,51296.3 -284,283.9 284,284 283.9,-284 z m -562.3,283.9 562.3,-562.3 562.3,562.3 -562.3,562.3 -562.3,-562.3"
         style="fill:#dbd7d7;fill-opacity:1;fill-rule:nonzero;stroke:none"
         id="path146" />
      <path
         d="m 100373,51580.3 c 0,108.6 -88,196.8 -197,196.8 -109,0 -196.7,-88.2 -196.7,-196.8 0,-108.7 87.7,-196.9 196.7,-196.9 109,0 197,88.2 197,196.9"
         style="fill:#dbd7d7;fill-opacity:1;fill-rule:nonzero;stroke:none"
         id="path148" />
      <path
         d="m 98306.6,51580.3 c 0,108.6 -88.2,196.8 -196.8,196.8 -108.8,0 -196.8,-88.2 -196.8,-196.8 0,-108.7 88,-196.9 196.8,-196.9 108.6,0 196.8,88.2 196.8,196.9"
         style="fill:#dbd7d7;fill-opacity:1;fill-rule:nonzero;stroke:none"
         id="path150" />
      <path
         d="m 98995.4,51580.3 c 0,108.6 -88.1,196.8 -196.9,196.8 -108.7,0 -196.7,-88.2 -196.7,-196.8 0,-108.7 88,-196.9 196.7,-196.9 108.8,0 196.9,88.2 196.9,196.9"
         style="fill:#dbd7d7;fill-opacity:1;fill-rule:nonzero;stroke:none"
         id="path152" />
      <path
         d="m 99684,51580.3 c 0,108.6 -88,196.8 -196.7,196.8 -108.7,0 -196.8,-88.2 -196.8,-196.8 0,-108.7 88.1,-196.9 196.8,-196.9 108.7,0 196.7,88.2 196.7,196.9"
         style="fill:#dbd7d7;fill-opacity:1;fill-rule:nonzero;stroke:none"
         id="path154" />
      <path
         d="m 101357,51580.3 c 0,-108.7 88,-196.9 197,-196.9 108,0 196,88.2 196,196.9 0,108.6 -88,196.8 -196,196.8 -109,0 -197,-88.2 -197,-196.8"
         style="fill:#dbd7d7;fill-opacity:1;fill-rule:nonzero;stroke:none"
         id="path156" />
      <path
         d="m 100668,51580.3 c 0,-108.7 88,-196.9 197,-196.9 109,0 197,88.2 197,196.9 0,108.6 -88,196.8 -197,196.8 -109,0 -197,-88.2 -197,-196.8"
         style="fill:#dbd7d7;fill-opacity:1;fill-rule:nonzero;stroke:none"
         id="path158" />
      <path
         d="m 95994.6,47793.1 c -84.8,0 -166.6,40 -228.5,94.8 l -100.4,-137.2 c 72.6,-79 189.9,-132.9 350.1,-132.9 198.1,0 371.9,98.7 371.9,272.9 0,121.4 -91.8,197.6 -209.8,228.5 v 5.9 c 112.3,42.6 179.4,111.7 179.4,208.3 0,164.8 -141.7,257.2 -346.6,257.2 -121,0 -227.1,-45.9 -318.1,-120.2 l 109.7,-132.1 c 64.1,51.4 125,81.7 198.7,81.7 84.8,0 138.6,-37.3 138.6,-102.9 0,-74.4 -68.5,-125.6 -252,-125.6 v -153.7 c 218.8,0 282.3,-50.7 282.3,-133.1 0,-71.7 -73.5,-111.6 -175.3,-111.6"
         style="fill:#dbd7d7;fill-opacity:1;fill-rule:nonzero;stroke:none"
         id="path160" />
      <path
         d="m 101586,48104.2 -977,411.9 102,-239.6 h -466 v -344.4 h 466 l -102,-239.7 977,411.8"
         style="fill:#dbd7d7;fill-opacity:1;fill-rule:nonzero;stroke:none"
         id="path162" />
      <path
         d="M 97490.2,48276.5 H 96703 v -344.4 h 787.2 v 344.4"
         style="fill:#dbd7d7;fill-opacity:1;fill-rule:nonzero;stroke:none"
         id="path164" />
      <path
         d="m 97883.8,47932.1 h 787.2 v 344.4 h -787.2 v -344.4"
         style="fill:#dbd7d7;fill-opacity:1;fill-rule:nonzero;stroke:none"
         id="path166" />
      <path
         d="m 99064.6,47932.1 h 787.2 v 344.4 h -787.2 v -344.4"
         style="fill:#dbd7d7;fill-opacity:1;fill-rule:nonzero;stroke:none"
         id="path168" />
      <path
         d="m 103835,48182.3 v -157.2 h -241 l 141,203.8 c 33,53.2 71,106.4 102,159.6 h 6 c -3,-60.2 -8,-146 -8,-206.2 z m 202,390.6 h -262 l -391,-563.4 v -150.4 h 451 v -223.6 h 202 v 223.6 h 119 v 166 h -119 v 547.8"
         style="fill:#dbd7d7;fill-opacity:1;fill-rule:nonzero;stroke:none"
         id="path170" />
      <path
         d="m 102387,48388.2 284,-284 -284,-283.9 -284,283.9 z m 563,-284 -563,562.3 -562,-562.3 562,-562.3 563,562.3"
         style="fill:#dbd7d7;fill-opacity:1;fill-rule:nonzero;stroke:none"
         id="path172" />
      <path
         d="m 110210,47820.3 -284,283.9 284,284 284,-284 z m -562,283.9 562,-562.3 563,562.3 -563,562.3 -562,-562.3"
         style="fill:#dbd7d7;fill-opacity:1;fill-rule:nonzero;stroke:none"
         id="path174" />
      <path
         d="m 108410,47688.7 976,411.8 -976,411.9 126,-296.9 c 0,0.3 -1,0.4 -1,0.7 -127,112.1 -261,297.8 -488,298.2 -218,0.4 -354,-158.6 -468,-291.3 -100,-116.9 -167,-187.8 -254,-187.6 -86,0.1 -150,71.5 -248,188.6 -109,130.4 -245,292.6 -472,293 -228,0.4 -364,-161.6 -475,-291.9 -98,-116 -162,-187.2 -247,-187.1 -86,0.2 -150,71.5 -249,190 -109,129.7 -244,291.2 -472,291.7 -218,0.4 -354,-158.7 -467,-291.4 -100,-116.8 -167,-187.7 -255,-187.6 v -295.2 c 230,-0.4 374,168 483,295.8 98,114.1 163,183.3 239,183.2 84,-0.2 148,-70.3 247,-188 109,-130.7 246,-293.2 473,-293.6 227,-0.4 364,161.6 474,291.9 98,116.1 163,187.2 248,187 85,-0.2 149,-71.3 247,-187.9 109,-130.7 246,-293.3 473,-293.7 230,-0.4 374,167.9 484,295.7 97,114.1 162,183.4 238,183.2 84,-0.1 140,-78.2 247,-188 77,-78 143,-115.9 207,-130.1 l -90,-212.4"
         style="fill:#dbd7d7;fill-opacity:1;fill-rule:nonzero;stroke:none"
         id="path176" />
      <path
         d="M 94189.8,40864.1 V 63145.9 H 112025 V 40864.1 Z m -505.2,22788.7 V 40357.2 H 112530 V 63652.8 H 93684.6"
         style="fill:#dbd7d7;fill-opacity:1;fill-rule:nonzero;stroke:none"
         id="path178" />
    </g>
  </g>
</svg>
